<svg width="339" height="135" viewBox="0 0 339 135" fill="none" xmlns="http://www.w3.org/2000/svg">
<g opacity="0.25">
<mask id="mask0_53_904" style="mask-type:luminance" maskUnits="userSpaceOnUse" x="19" y="35" width="297" height="100">
<path d="M315.806 35.9116H19.5665V135H315.806V35.9116Z" fill="white"/>
</mask>
<g mask="url(#mask0_53_904)">
<path d="M298.341 48.1838C266.048 41.6654 178.633 36.4277 168.215 35.9116H167.164C156.752 36.4341 69.337 41.6654 37.0381 48.1838C33.0876 48.9802 17.2536 105.645 19.8533 108.289C22.4339 110.921 143.448 133.84 166.922 135H168.451C191.925 133.84 312.938 110.921 315.519 108.289C318.125 105.645 302.291 48.9802 298.341 48.1838Z" fill="#292154"/>
</g>
</g>
<path d="M295.76 43.4747C264.156 37.2049 178.429 32.2348 168.209 31.7314H167.176C156.956 32.2348 71.2357 37.2049 39.625 43.4747C35.7637 44.2394 20.9364 98.4254 23.4979 100.936C26.0466 103.434 144.098 125.193 166.947 126.289H168.438C191.287 125.187 309.338 103.434 311.887 100.936C314.461 98.419 299.634 44.2394 295.766 43.4747" fill="#292154"/>
<path d="M28.691 86.1598C29.5448 78.1313 33.5081 65.9738 33.5081 65.9738C33.5081 65.9738 25.2693 63.6035 21.854 71.9761C18.4387 80.3487 25.2693 85.6437 28.691 86.1598Z" fill="#292154"/>
<path d="M289.866 46.8901C260.02 41.2956 177.989 36.6824 168.183 36.23H167.189C157.389 36.6824 75.3519 41.2956 45.5062 46.8901C41.8679 47.5718 31.6284 94.3666 34.1835 96.4757C36.7067 98.5656 146.105 116.534 167.004 117.433H168.362C189.255 116.541 298.659 98.5656 301.182 96.4757C303.744 94.3666 293.504 47.5718 289.866 46.8901Z" fill="#00B6FF"/>
<path d="M279.767 51.9942C252.674 47.107 177.186 42.857 168.145 42.4619H167.227C158.186 42.857 82.6986 47.107 55.6056 51.9942C52.3177 52.5868 46.3409 92.2132 48.7622 93.9463C51.158 95.6603 148.692 110.239 167.087 110.959H168.285C186.687 110.239 284.214 95.6667 286.61 93.9463C289.031 92.2068 283.054 52.5868 279.767 51.9942Z" fill="#38CFFF"/>
<path d="M275.262 60.6411C249.558 56.6905 176.862 53.1223 168.132 52.8037H167.246C158.332 53.135 85.7762 56.6969 60.1168 60.6411C57.0074 61.1189 54.6116 92.086 57.0074 93.405C59.3713 94.7049 150.215 105.601 167.138 106.13H168.24C185.164 105.594 276.007 94.7049 278.371 93.405C280.767 92.086 278.371 61.1189 275.255 60.6411" fill="#FCFFFF"/>
<path d="M270.757 63.3171C246.053 59.3984 176.581 61.1379 168.119 60.8129H167.259C158.797 61.1315 88.6563 59.6405 63.9463 63.5592C60.9643 64.0307 59.9066 89.4798 62.245 90.7478C64.5516 91.9967 151.119 102.408 167.157 102.918H168.202C184.24 102.408 270.801 91.9903 273.114 90.7478C275.466 89.4798 273.733 63.7822 270.75 63.3107" fill="#292154"/>
<path d="M271.655 65.7513C246.952 61.8326 176.581 62.1321 168.119 61.8135H167.259C158.797 62.1321 88.4269 61.8326 63.7169 65.7513C60.7349 66.2228 59.9066 89.4863 62.2514 90.7543C64.558 92.0032 151.126 102.415 167.164 102.925H168.209C184.247 102.415 270.808 91.9968 273.121 90.7543C275.472 89.4863 274.644 66.2228 271.662 65.7513" fill="#292154"/>
<g opacity="0.36">
<mask id="mask1_53_904" style="mask-type:luminance" maskUnits="userSpaceOnUse" x="144" y="2" width="51" height="57">
<path d="M194.104 2.98877H144.913V58.2644H194.104V2.98877Z" fill="white"/>
</mask>
<g mask="url(#mask1_53_904)">
<path d="M194.104 26.4435C194.104 13.4895 183.093 2.98877 169.508 2.98877C155.924 2.98877 144.913 13.4895 144.913 26.4435C144.913 31.2351 146.442 35.9057 149.278 39.7734C147.481 43.2078 146.946 47.1711 147.781 50.9559C148.781 56.1298 157.848 58.258 170.426 58.258C184.457 58.258 192.281 55.5309 192.511 48.9807C192.727 42.9083 191.198 39.6587 190.561 38.5755C192.874 34.9499 194.104 30.7381 194.104 26.4371" fill="black"/>
</g>
</g>
<g opacity="0.25">
<mask id="mask2_53_904" style="mask-type:luminance" maskUnits="userSpaceOnUse" x="0" y="52" width="339" height="63">
<path d="M338.668 52.4272H0.0304565V114.228H338.668V52.4272Z" fill="white"/>
</mask>
<g mask="url(#mask2_53_904)">
<path d="M338.133 91.5502C336.922 85.4779 333.519 80.0555 328.569 76.3343C328.409 76.2196 328.25 76.0986 328.084 75.9902C328.944 74.4992 329.371 72.2372 329.913 69.3253L329.932 69.2425C330.665 64.7758 331.423 60.2072 327.358 57.5884C322.706 54.5044 316.398 53.0134 308.058 53.0134C301.507 53.0134 296.429 54.8421 292.912 58.4995C291.319 60.1817 290.146 62.2143 289.477 64.4254C285.119 61.832 280.111 61.3924 277.237 61.3924C273.185 61.3924 269.584 61.5453 266.545 61.8448L265.169 61.9786C263.232 60.9909 260.728 60.9846 257.962 60.9846C254.464 60.9846 249.188 61.2076 242.288 61.66L238.203 61.9212L238.267 63.3039C235.533 61.8256 232.118 61.0865 227.9 61.0865C222.07 61.0865 217.367 62.9216 213.876 66.5408C213.742 65.0817 212.996 63.7436 211.824 62.8643L211.945 62.8515C215.182 62.6221 216.061 62.4373 216.8 62.1124L219.464 60.9527L219.744 60.3792C219.744 60.3792 120.885 60.6723 121.344 61.2586C121.114 61.2586 120.904 61.2586 120.719 61.2586C120.031 61.2586 119.177 61.2713 118.151 61.3032C113.538 61.437 111.984 61.4879 110.365 63.0363L110.219 63.1765L110.085 63.323C108.982 64.5528 108.696 64.8714 108.078 71.8485C105.835 62.5839 105.573 62.4628 103.783 61.6918L103.445 61.5453L103.082 61.4625C101.986 61.2649 100.871 61.1948 99.756 61.2522C98.7684 61.2522 97.4876 61.2713 95.8501 61.3095C89.7013 61.5517 89.3317 61.6281 88.274 62.1506L88.0382 62.2653L87.8152 62.3991C86.5472 63.1828 85.6233 63.7691 82.5329 71.0839C82.5648 70.7844 82.5967 70.4913 82.6222 70.2237C83.0554 65.9164 83.2338 64.145 81.3669 62.6285C80.1435 61.6345 78.952 61.5262 74.7784 61.5262H74.702C72.7267 61.5007 70.7451 61.6281 68.7889 61.9085L65.329 62.5584L65.0168 63.8646L64.934 63.6862C63.7488 61.1311 61.1427 61.0993 56.8226 61.061H56.2109C55.835 61.061 55.4208 61.061 54.9875 61.0674L55.2488 59.7612L54.1401 58.2957C51.1453 54.3387 45.4107 52.4336 36.5729 52.4336C28.3214 52.3189 20.2993 55.1161 13.9147 60.341C7.3517 65.6296 2.83408 73.0464 1.13917 81.3043C-0.848843 90.3842 -0.167057 98.0431 3.24187 103.969C7.10957 110.742 13.9083 114.228 23.396 114.228C33.4125 114.228 41.4856 110.959 47.3031 104.587L47.953 103.873C48.3098 103.873 48.6603 103.88 48.9853 103.88C49.3102 103.88 49.6543 103.88 50.0685 103.873C54.3631 103.778 55.8031 103.561 56.6442 103.364L60.4036 102.478L60.5438 101.694C61.901 103.803 64.9977 103.835 68.6997 103.873H69.3751C71.3504 103.873 73.9437 103.873 76.0018 102.752C77.8497 103.134 79.7357 103.364 81.6218 103.427C84.8268 103.689 85.8845 103.72 86.407 103.72C87.624 103.765 88.8283 103.395 89.8032 102.663C91.1349 101.681 91.9059 100.439 92.9254 97.527H92.9445C93.5499 100.758 94.2953 102.472 96.1623 103.364L96.2388 103.402C96.8696 103.676 97.5577 103.81 98.2459 103.791C98.7301 103.791 99.7114 103.752 103.006 103.472C104.796 103.357 106.58 103.153 108.352 102.854L110.021 103.064C110.888 103.172 112.946 103.3 121.656 103.383C122.733 103.383 123.72 103.389 124.619 103.389C126.906 103.389 128.595 103.37 129.774 103.338C130.8 103.351 131.825 103.211 132.813 102.93L133.833 103.058C134.699 103.166 136.757 103.294 145.474 103.376C146.551 103.376 147.538 103.383 148.437 103.383C150.724 103.383 152.413 103.364 153.592 103.332C154.286 103.325 154.981 103.268 155.669 103.16L157.421 103.306C159.798 103.51 164.099 103.612 170.509 103.612H170.534C172.115 103.625 173.491 103.638 174.657 103.638C176.333 103.638 177.569 103.618 178.442 103.587C179.691 103.599 180.914 103.294 182.004 102.688C183.82 103.192 185.706 103.389 187.592 103.281C191.714 103.281 193.18 103.039 194.078 102.797L197.564 101.873L197.576 100.821C197.768 101.127 197.984 101.42 198.22 101.694L198.819 102.395L199.59 102.841C200.82 103.548 202.158 103.689 204.057 103.689C204.808 103.689 205.694 103.663 206.745 103.612C209.88 103.472 214.602 103.255 215.29 98.6485C215.316 98.5147 215.335 98.3617 215.354 98.1451C219.247 102.274 224.338 104.377 230.468 104.377C234.304 104.491 238.108 103.714 241.587 102.108L241.72 102.956L245.919 103.313C248.322 103.517 252.629 103.618 259.045 103.618H259.071C260.658 103.631 262.034 103.644 263.2 103.644C264.869 103.644 266.105 103.625 266.972 103.593C267.998 103.593 269.017 103.389 269.96 102.969C271.184 103.44 272.496 103.644 273.809 103.574C274.529 103.574 275.447 103.555 276.568 103.517C281.092 103.466 282.131 103.287 283.125 102.752L285.24 101.618V101.344C286.26 102.663 287.649 104.147 289.93 104.186H290.089C291.312 104.141 292.517 103.873 293.644 103.408C293.746 103.905 293.899 104.383 294.097 104.848L294.932 106.83L296.703 107.926C302.692 111.628 309.81 113.514 317.806 113.514C325.803 113.514 331.818 111.093 335.361 106.352C338.47 102.204 339.382 97.2084 338.139 91.5375M42.7154 85.3696C42.6389 85.2995 42.5561 85.2358 42.4796 85.172L40.0711 83.286L37.0954 85.325C34.2345 87.2811 31.7558 88.2751 29.736 88.2751C28.5635 88.3771 27.4039 87.9884 26.5373 87.1983C26.1868 86.8351 25.1227 85.7391 25.83 81.9351C26.0849 80.2211 26.9323 78.66 28.2258 77.5131C29.4301 76.4235 31.0039 75.8246 32.6288 75.8373C35.2603 75.9584 37.7963 76.8441 39.9245 78.3924L42.4924 80.0937L43.6393 79.1953C43.2888 81.2024 42.9702 83.2541 42.7154 85.3759M132.979 63.0363L132.839 63.1765L132.711 63.323C131.303 64.9415 131.277 64.9733 130.487 80.8456C130.436 81.8396 130.385 82.7826 130.341 83.6874C129.678 83.6619 128.939 83.6492 128.111 83.6492C127.531 83.6492 126.9 83.6492 126.225 83.6683C126.804 77.7489 127.078 71.8103 127.047 65.8654V65.6487L127.021 65.4321C126.951 64.47 126.569 63.5588 125.925 62.8388C126.403 62.8388 126.983 62.826 127.684 62.8069C130.978 62.7177 132.208 62.6795 133.457 61.5262L133.622 61.3669L133.737 61.2331C133.845 61.112 133.947 60.9909 134.036 60.8699C134.24 61.2394 134.514 61.5771 134.833 61.8575C134.126 62.0933 133.488 62.5011 132.972 63.0299M154.076 66.1967C153.636 72.8362 153.324 78.6473 153.146 83.6747C152.591 83.6619 151.986 83.6492 151.323 83.6492C150.743 83.6492 150.113 83.6492 149.437 83.6683C149.839 77.7425 149.934 71.7976 149.724 65.859L149.711 65.6424L149.679 65.4257C149.59 64.642 149.31 63.8965 148.857 63.2529C148.978 63.2657 149.099 63.2721 149.227 63.2784H149.342C150.858 63.1765 152.349 62.8069 153.738 62.1888C153.738 62.1888 154.095 62.0487 154.235 61.9913C154.267 62.0168 154.305 62.0359 154.344 62.0614L154.07 66.2031L154.076 66.1967ZM166.284 61.2012C166.603 60.7679 166.832 60.2773 166.96 59.7548C167.004 59.5955 167.043 59.4362 167.068 59.2705C167.285 59.9141 167.565 60.5322 167.903 61.1247C167.38 61.1439 166.845 61.1693 166.291 61.1948M183.176 61.5453C182.59 61.6536 182.016 61.8129 181.462 62.0232C181.366 61.9658 181.258 61.9276 181.163 61.8766C180.812 61.3605 180.946 60.666 181.462 60.3155C181.978 59.9651 182.673 60.0989 183.023 60.615C183.208 60.889 183.265 61.2267 183.176 61.5453ZM195.824 64.5783C195.62 64.2661 195.416 63.9475 195.212 63.6352C194.951 63.2083 194.62 62.8197 194.244 62.4819C194.69 62.5584 195.257 62.6221 196.022 62.6858L195.824 64.5719V64.5783ZM205.025 61.5835H204.216C204.483 61.284 204.706 60.9527 204.878 60.5895C205.07 60.9463 205.293 61.284 205.554 61.5899C205.382 61.5899 205.21 61.5899 205.025 61.5835Z" fill="#292154"/>
</g>
</g>
<path d="M338.133 86.6059C336.922 80.5272 333.519 75.1111 328.569 71.39C328.409 71.2753 328.25 71.1606 328.091 71.0459C328.951 69.5549 329.378 67.2929 329.913 64.3873L329.932 64.2981C330.665 59.8315 331.423 55.2629 327.358 52.644C322.706 49.5601 316.398 48.0691 308.058 48.0691C301.507 48.0691 296.429 49.8978 292.912 53.5488C291.319 55.231 290.146 57.2636 289.477 59.481C285.119 56.8877 280.111 56.448 277.237 56.448C273.185 56.448 269.584 56.601 266.545 56.9004L265.169 57.0342C263.232 56.0466 260.728 56.0402 257.962 56.0402C254.464 56.0402 249.188 56.2696 242.288 56.7156L238.203 56.9769L238.267 58.3659C235.533 56.8877 232.118 56.1486 227.9 56.1486C222.07 56.1486 217.367 57.9836 213.876 61.5965C213.748 60.1373 213.404 57.8626 211.212 57.3528C208.44 56.7093 197.812 56.5563 181.965 56.3015C172.28 56.1486 153.617 55.6452 152.872 57.7033C150.718 56.3015 147.921 56.0147 146.041 56.0147C131.915 56.002 121.191 56.1167 121.35 56.3206C121.121 56.3206 120.91 56.3206 120.726 56.3206C120.038 56.3206 119.184 56.3333 118.151 56.3652C113.538 56.499 111.984 56.55 110.365 58.092L110.219 58.2321L110.085 58.3787C108.976 59.6085 108.696 59.927 108.071 66.9042C105.835 57.6396 105.567 57.5185 103.777 56.7475L103.439 56.601L103.076 56.5181C101.98 56.3206 100.865 56.2505 99.7496 56.3078C98.762 56.3078 97.4813 56.327 95.8437 56.3652C89.6949 56.6073 89.3253 56.6838 88.2676 57.2063L88.0318 57.321L87.8088 57.4548C86.5408 58.2385 85.6169 58.8247 82.5266 66.1396C82.5584 65.8401 82.5903 65.547 82.6158 65.2794C83.0491 60.972 83.2275 59.2007 81.3605 57.6778C80.1371 56.6838 78.9456 56.5755 74.7721 56.5755H74.6765C72.7012 56.55 70.7196 56.6774 68.7634 56.9578L65.3035 57.6013L64.9913 58.9076L64.9085 58.7291C63.7233 56.174 61.1172 56.1422 56.7971 56.104H56.1791C55.8031 56.104 55.3889 56.1039 54.9557 56.1167L55.2169 54.8168L54.1082 53.3513C51.1134 49.4008 45.3788 47.4892 36.5411 47.4892C28.2895 47.3745 20.2674 50.1718 13.8828 55.3967C7.31984 60.6853 2.80222 68.1021 1.10731 76.36C-0.880704 85.4399 -0.198918 93.0988 3.21001 99.0246C7.07771 105.798 13.8765 109.283 23.3641 109.283C33.387 109.283 41.4537 106.015 47.2712 99.6427L47.9212 98.929C48.278 98.929 48.6284 98.9354 48.9534 98.9354C49.2784 98.9354 49.6224 98.9354 50.0366 98.929C54.3312 98.8334 55.7713 98.6168 56.6123 98.4193L60.3717 97.5336L60.5119 96.7499C61.8691 98.8653 64.9658 98.8908 68.6678 98.929H69.3433C71.3185 98.929 73.9119 98.929 75.97 97.8076C77.8178 98.1899 79.7039 98.4193 81.5899 98.483C84.795 98.7442 85.8527 98.7761 86.3752 98.7761C87.5922 98.8207 88.7965 98.4511 89.7713 97.7184C91.1031 96.7371 91.8741 95.4946 92.8936 92.5827H92.9127C93.518 95.8196 94.2635 97.5272 96.1304 98.4193L96.2069 98.4639C96.8377 98.7379 97.5259 98.8717 98.214 98.8526C98.6983 98.8526 99.6796 98.8143 102.974 98.534C104.764 98.4193 106.548 98.2154 108.32 97.9159L109.989 98.1262C110.849 98.2345 112.907 98.3619 121.624 98.4448C122.701 98.4448 123.689 98.4511 124.587 98.4511C126.875 98.4511 128.563 98.432 129.742 98.4002C130.768 98.4129 131.794 98.2727 132.781 97.9924L133.801 98.1262C134.667 98.2345 136.725 98.3619 145.442 98.4448C146.519 98.4448 147.507 98.4511 148.405 98.4511C150.692 98.4511 152.381 98.432 153.56 98.4002C154.254 98.4002 154.949 98.3364 155.637 98.2281L157.389 98.381C159.766 98.5849 164.067 98.6805 170.477 98.6805H170.502C172.083 98.6996 173.459 98.706 174.625 98.706C176.301 98.706 177.537 98.6869 178.41 98.655C179.659 98.6678 180.882 98.3619 181.972 97.7566C183.788 98.2536 185.674 98.4575 187.56 98.3492C191.682 98.3492 193.148 98.1071 194.046 97.8649L197.532 96.9346L197.545 95.8833C197.736 96.1891 197.952 96.4822 198.188 96.7626L198.781 97.4635L199.552 97.9095C200.781 98.6168 202.12 98.757 204.018 98.757C204.77 98.757 205.656 98.7315 206.707 98.6805C209.849 98.5403 214.564 98.3237 215.252 93.7169C215.277 93.5831 215.296 93.4301 215.316 93.2135C219.209 97.3424 224.3 99.4515 230.43 99.4515C234.265 99.5598 238.069 98.7825 241.555 97.1768L241.689 98.0179L245.888 98.3747C248.29 98.5786 252.597 98.6742 259.014 98.6742H259.033C260.619 98.6933 261.996 98.6996 263.162 98.6996C264.831 98.6996 266.067 98.6805 266.934 98.6487C267.96 98.6487 268.979 98.4384 269.922 98.0242C271.146 98.4957 272.458 98.6996 273.771 98.6295C274.491 98.6295 275.408 98.6104 276.53 98.5722C281.054 98.5212 282.092 98.3428 283.086 97.8076L285.202 96.6734V96.3994C286.221 97.7184 287.61 99.203 289.891 99.2412H290.051C291.274 99.1966 292.478 98.929 293.606 98.4639C293.708 98.9609 293.861 99.4388 294.059 99.9039L294.893 101.886L296.665 102.982C302.654 106.684 309.772 108.57 317.768 108.57C325.765 108.57 331.78 106.148 335.323 101.408C338.451 97.2532 339.362 92.2513 338.12 86.5868M42.6963 80.4125C42.6198 80.3424 42.537 80.2787 42.4605 80.215L40.0519 78.3353L37.0763 80.3743C34.2153 82.3304 31.7367 83.3244 29.7168 83.3244C28.5444 83.4264 27.3847 83.0377 26.5182 82.2476C26.1677 81.8844 25.1036 80.7884 25.8109 76.9844C26.0658 75.2704 26.9132 73.7093 28.2067 72.5624C29.411 71.4728 30.9848 70.8739 32.6096 70.8866C35.2412 71.0077 37.7772 71.8933 39.9054 73.4417L42.4732 75.143L43.6202 74.2445C43.2697 76.2517 42.9511 78.3034 42.6963 80.4189" fill="#292154"/>
<path d="M74.1858 61.3802C72.4527 61.3802 70.7132 61.4758 68.9928 61.6861C68.6105 63.3109 68.0115 67.0639 67.1896 73.0088C64.5516 72.9833 61.9201 72.9833 59.2949 73.0088C60.257 65.3626 60.6967 61.4949 60.6457 61.291C60.5438 61.0616 59.0081 60.9278 56.0516 60.9023C53.0377 60.8705 51.4703 61.0616 51.3492 61.4631C48.4691 70.5366 46.8762 81.1329 46.6149 93.3541C46.6149 93.5771 47.9976 93.6663 50.7757 93.6344C52.6363 93.6536 54.4969 93.5261 56.3383 93.2585C56.7461 91.0347 57.326 87.3008 58.0715 82.1014L65.9598 82.1906C65.1952 88.1356 64.7747 91.8312 64.7046 93.2075C64.73 93.456 66.2975 93.6026 69.4197 93.6281C72.561 93.6599 74.205 93.456 74.3515 93.0164C74.6574 92.1689 75.4347 86.5681 76.6517 76.4114C77.8879 66.6115 78.404 61.7307 78.2256 61.5841C78.0472 61.4376 76.6963 61.3675 74.1795 61.3675" fill="#C7DCEA"/>
<path d="M49.6925 94.0802C46.1944 94.0802 46.2008 93.8253 46.2135 93.4175C46.4811 81.1964 48.0996 70.4726 50.986 61.3927C51.1326 60.883 51.6296 60.4688 56.1217 60.4943C60.7668 60.5389 60.8942 60.8129 61.0089 61.0741C61.0726 61.278 61.13 61.501 59.7473 72.588C62.1049 72.5625 64.4943 72.5625 66.8646 72.588C67.6547 66.898 68.2473 63.2342 68.6232 61.6412L68.6933 61.3417L68.9864 61.2844C70.7323 61.0677 72.4846 60.9658 74.2432 60.9722C78.1491 60.9722 78.353 61.1378 78.506 61.2653C78.7353 61.4564 78.9201 61.603 77.0595 76.4239C75.2181 91.8055 74.8549 92.8058 74.7402 93.1372C74.5809 93.6533 74.0457 94.1375 69.3751 94.0802C64.3796 94.0292 64.3541 93.7361 64.3159 93.3283C64.3796 91.9074 64.7874 88.3073 65.5202 82.6236L58.4156 82.5408C57.7019 87.4917 57.1412 91.1173 56.7461 93.2837L56.6824 93.6214L56.3702 93.6915C54.5033 93.9719 52.6108 94.0993 50.7248 94.0802C50.3552 94.0929 50.0111 94.0929 49.6989 94.0929M47.0355 93.0798C48.2971 93.2327 49.5778 93.2774 50.8458 93.2073C52.5726 93.2073 54.293 93.1053 56.007 92.9014C56.4084 90.6522 56.9692 87.0075 57.6764 82.1139L57.7401 81.687L66.4186 81.7889L66.3676 82.2095C65.654 87.8103 65.2334 91.4423 65.1378 92.9651C66.5779 93.1881 68.037 93.271 69.4962 93.22C73.0007 93.2519 73.829 92.9715 74.0138 92.8696C74.2368 92.0922 74.8167 88.5112 76.2758 76.4366C77.6712 65.4261 77.9006 62.5651 77.8943 61.9152C76.6518 61.7941 75.4029 61.7559 74.154 61.7941C71.7964 61.8451 70.1716 61.9279 69.3178 62.049C68.9355 63.8013 68.362 67.4714 67.5974 73.0277L67.54 73.4418H67.1513C64.5262 73.41 61.8691 73.41 59.263 73.4418H58.8743L58.9253 73.034C59.9575 64.8271 60.2443 62.2083 60.2825 61.5711C58.868 61.3481 57.4407 61.2653 56.0134 61.3226C52.7255 61.2971 51.9099 61.5393 51.7188 61.6348C48.9152 70.5618 47.3286 81.1008 47.061 93.0926H47.0482L47.0355 93.0798Z" fill="white"/>
<path d="M101.68 61.2074C99.6477 61.0608 97.6087 61.0481 95.5761 61.1628C93.6773 61.1819 91.7785 61.2966 89.8861 61.5069C88.8156 62.1759 84.7631 72.2625 77.4482 92.5568C77.7413 92.7798 79.449 92.9965 82.5712 93.2195C84.1705 93.4234 85.789 93.4998 87.401 93.4552C87.7451 93.2067 88.5225 91.1168 89.7268 87.2299C92.1863 87.402 94.6522 87.4466 97.1117 87.3701C97.6979 91.3207 98.1567 93.3915 98.4944 93.5508C100.036 93.5508 101.585 93.4489 103.114 93.2705C106.255 93.022 108.065 92.7862 108.543 92.5632C108.333 90.0272 107.109 83.9039 104.911 74.3588C102.878 65.5976 101.814 61.2647 101.68 61.2074ZM91.7785 79.5965C91.9951 79.1441 92.524 77.6595 93.3651 75.1617L95.1237 70.1534L95.3786 70.1088L96.1751 75.0215C96.5446 77.6403 96.7995 79.1632 96.9333 79.5901C94.7223 79.5583 93.0083 79.5583 91.7849 79.5901L91.7785 79.5965Z" fill="#C7DCEA"/>
<path d="M98.711 94.0037C98.5708 94.0228 98.4307 94.0037 98.3032 93.9527C98.0165 93.8189 97.6342 93.6341 96.7612 87.8167C95.5825 87.8804 93.3523 87.8294 89.9944 87.6701C88.2357 93.3347 87.8407 93.6278 87.5986 93.7998C87.4201 93.9336 87.2863 94.0356 82.4947 93.6469C77.7095 93.3092 77.359 93.0479 77.1934 92.9205L76.9703 92.7484L77.085 92.4426C86.7957 65.5662 88.9175 61.673 89.7331 61.1633C89.9179 61.0677 90.1154 60.9721 95.6207 60.7555C100.476 60.6408 101.483 60.73 101.82 60.8065L101.878 60.8256C102.114 60.9275 102.235 60.9849 105.306 74.2192C107.504 83.7387 108.747 89.9385 108.957 92.4808L108.982 92.8185L108.683 92.9524C108.345 93.1116 107.402 93.3538 103.114 93.6979C100.336 93.9336 99.2144 93.9973 98.7238 93.9973M98.7047 93.1244C98.9595 93.1371 99.8834 93.0989 103.12 92.8249C104.79 92.7357 106.459 92.5446 108.103 92.2451C107.816 89.5307 106.606 83.5093 104.529 74.4804C102.267 64.6996 101.597 62.1445 101.406 61.5647C99.4565 61.4628 97.5004 61.4628 95.5506 61.5583C91.3834 61.724 90.2875 61.8196 90.0262 61.8706C89.4018 62.4122 87.0378 67.0891 77.9643 92.2706C79.5127 92.5445 81.0738 92.7102 82.6476 92.7739C85.9865 93.0416 86.955 93.0607 87.2354 93.0416C87.3947 92.7994 87.9235 91.7098 89.3508 87.1221L89.4591 86.7717L89.7905 86.7908C93.6072 86.9756 96.0731 87.0202 97.1181 86.931L97.4558 86.9055L97.5067 87.2559C98.1822 91.8437 98.5581 92.8886 98.6919 93.1244H98.7047ZM91.154 80.0303L91.4344 79.4377C91.5746 79.1382 91.9633 78.1315 93.0019 75.0539L94.8497 69.7907L95.7099 69.6442L96.5637 74.9137C97.0289 78.1378 97.2264 79.151 97.3092 79.4313L97.494 80.0303H96.8887C94.6904 79.992 92.9573 79.992 91.7466 80.0239L91.1477 80.043L91.154 80.0303ZM94.0341 79.151C94.7477 79.151 95.5442 79.151 96.4235 79.1637C96.277 78.4118 96.0667 77.0737 95.7927 75.124L95.1683 71.218L93.7474 75.2705C93.1229 77.1311 92.6705 78.4246 92.3838 79.1637C92.8681 79.1573 93.416 79.151 94.0341 79.151Z" fill="white"/>
<path d="M120.93 83.9937C121.873 76.4622 122.363 68.8861 122.414 61.2973C122.395 61.1252 120.917 61.0806 117.979 61.1698C115.061 61.2527 113.532 61.3674 113.379 61.5139C113.201 61.7178 112.761 66.4648 112.06 75.9334C111.346 85.1789 110.983 90.8944 110.977 92.8952C111.977 93.0226 115.654 93.1182 122.006 93.1756C128.359 93.2074 131.571 93.1437 131.634 92.9908C132.24 91.1111 132.322 88.1036 131.889 84.0001C130.131 83.758 126.479 83.758 120.93 84.0001" fill="#C7DCEA"/>
<path d="M125.371 93.615C124.396 93.615 123.268 93.615 121.975 93.6087C115.533 93.5449 111.907 93.4557 110.894 93.3219L110.569 93.2837V92.9269C110.569 90.9197 110.945 85.1469 111.659 75.9332C112.723 61.673 112.92 61.45 113.092 61.2525C113.283 61.0677 113.455 60.9021 117.979 60.7619C122.726 60.6217 122.746 60.8128 122.784 61.227C122.746 68.6884 122.274 76.1435 121.363 83.5475C126.664 83.3245 130.226 83.3309 131.947 83.573L132.24 83.6113L132.271 83.9235C132.718 88.1353 132.635 91.1491 132.004 93.1053C131.851 93.4749 131.787 93.615 125.358 93.615M111.372 92.4872C112.704 92.5955 116.278 92.6784 122.026 92.7357C128.735 92.7676 130.761 92.6911 131.322 92.621C131.825 90.8815 131.889 88.097 131.52 84.3822C127.983 84.172 124.441 84.1847 120.911 84.4205L120.471 84.4396L120.522 83.9681C121.446 76.5385 121.949 69.0644 122.019 61.5775C120.662 61.4883 119.305 61.4819 117.948 61.5647C116.52 61.5647 115.087 61.6539 113.672 61.8196C113.545 62.4886 113.226 65.3241 112.449 75.9332C111.786 84.6053 111.423 90.2189 111.385 92.4936" fill="white"/>
<path d="M144.308 83.9937C145.022 76.4495 145.289 68.867 145.104 61.2973C145.079 61.1252 143.601 61.0806 140.663 61.1698C137.751 61.2527 136.222 61.3674 136.075 61.5139C135.897 61.7178 135.61 66.4648 135.196 75.9334C134.763 85.1789 134.572 90.8944 134.629 92.8952C135.636 93.0226 139.312 93.1182 145.665 93.1756C152.018 93.2074 155.229 93.1437 155.287 92.9908C155.835 91.1111 155.828 88.1036 155.267 84.0001C153.502 83.758 149.845 83.758 144.302 84.0001" fill="#C7DCEA"/>
<path d="M149.048 93.615C148.074 93.615 146.946 93.615 145.652 93.6087C139.21 93.5449 135.585 93.4557 134.565 93.3219L134.24 93.2837L134.228 92.9269C134.17 90.9197 134.368 85.1469 134.801 75.9332C135.432 61.673 135.623 61.45 135.795 61.2525C135.98 61.0677 136.146 60.9021 140.67 60.7619C145.41 60.6217 145.436 60.8128 145.487 61.227C145.678 68.6757 145.429 76.1307 144.741 83.5475C150.036 83.3245 153.598 83.3309 155.331 83.573L155.624 83.6113L155.669 83.9235C156.249 88.1353 156.255 91.1491 155.682 93.1053C155.541 93.4749 155.484 93.615 149.055 93.615M135.03 92.4872C136.362 92.5955 139.943 92.6784 145.691 92.7357C152.4 92.7676 154.426 92.6911 154.981 92.621C155.427 90.8815 155.414 88.097 154.93 84.3822C151.393 84.172 147.851 84.1847 144.321 84.4205L143.881 84.4396L143.919 83.9681C144.62 76.5258 144.894 69.0516 144.735 61.5775C143.378 61.4883 142.02 61.4819 140.663 61.5647C139.236 61.5647 137.809 61.6539 136.394 61.8196C136.286 62.4886 136.05 65.3241 135.598 75.9332C135.196 84.6053 135.005 90.2189 135.03 92.4936" fill="white"/>
<path d="M179.519 69.625C179.997 66.1842 179.946 63.4507 179.359 61.4245C178.99 60.6153 172.102 60.6471 158.702 61.5137C157.835 75.9331 157.555 86.5868 157.899 93.1307C160.123 93.3219 164.354 93.4174 170.598 93.4174C176.811 93.4812 179.761 93.4174 179.436 93.2263C179.984 91.0662 179.952 88.1862 179.359 84.5988C175.345 84.3758 171.331 84.3758 167.317 84.5988V81.1134C173.465 81.2982 176.537 81.2473 176.537 80.9733C176.479 75.6846 176.422 73.034 176.365 72.9702C176.078 72.6708 173.083 72.5561 167.374 72.6134L167.297 69.6314C171.369 69.8544 175.453 69.8544 179.525 69.6314" fill="#C7DCEA"/>
<path d="M175.109 93.8695C173.931 93.8695 172.446 93.8567 170.585 93.844C164.36 93.844 160.078 93.7484 157.854 93.5573L157.51 93.5254L157.491 93.1495C157.16 86.6183 157.44 75.8563 158.313 61.4878L158.332 61.1246L158.676 61.1055C179.034 59.7865 179.449 60.7041 179.703 61.2521C180.328 63.3866 180.385 66.203 179.907 69.6884L179.863 70.0006L179.563 70.0325C175.613 70.2555 171.649 70.2555 167.692 70.0452L167.75 72.1798C176.103 72.1033 176.422 72.441 176.632 72.664C176.798 72.8361 176.836 72.8743 176.925 80.9538V81.1322L176.791 81.2915C176.588 81.5081 176.326 81.7757 167.705 81.5272V84.1397C171.592 83.9294 175.492 83.9358 179.378 84.1588L179.684 84.1907L179.735 84.5156C180.309 87.3192 180.36 90.212 179.882 93.0348L179.837 93.347C179.754 93.7165 179.723 93.8695 175.109 93.8695ZM158.269 92.7098C160.55 92.8818 164.691 92.9647 170.585 92.9647C176.6 93.0284 178.518 92.9583 179.085 92.8882C179.55 90.2694 179.525 87.5932 179.009 84.9871C175.116 84.796 171.21 84.8087 167.317 85.0126L166.909 85.0254V80.6607L167.323 80.6734C173.72 80.8646 175.594 80.7626 176.129 80.6734C176.078 75.3912 176.027 73.7154 175.995 73.2184C175.613 73.1292 173.931 72.9444 167.368 73.0081H166.985L166.89 69.185L167.304 69.1977C173.147 69.3953 177.142 69.4016 179.181 69.2296C179.621 66.7 179.563 64.113 179.015 61.6025C178.563 61.3094 175.638 60.8124 159.059 61.8701C158.237 75.7544 157.963 86.2233 158.275 92.6971L158.269 92.7098Z" fill="white"/>
<path d="M205.254 61.4626C203.591 61.4116 201.928 61.4945 200.278 61.7239C200.221 62.3037 200.291 64.3236 200.495 67.809L200.947 77.5069C198.437 72.7089 195.244 67.2865 191.364 61.246C191.249 61.0421 189.815 60.9847 187.076 61.0739C184.31 61.1886 182.902 61.4499 182.851 61.8577C181.57 71.2115 181.749 81.4829 183.444 92.7483C183.476 92.9649 184.82 93.0796 187.477 93.0796C189.255 93.1497 191.039 93.0414 192.797 92.7483C192.817 91.5568 192.74 89.4349 192.555 86.3956C192.345 82.3367 192.211 79.4503 192.16 77.6917C193.594 79.9027 195.582 83.1523 198.137 87.4597C200.265 91.0406 201.45 92.9841 201.699 93.2644C202.081 93.4811 203.617 93.532 206.299 93.4046C209.065 93.2772 210.479 92.9777 210.543 92.5125C210.702 91.6651 210.543 86.1789 210.091 76.2453C209.708 66.6493 209.422 61.8704 209.218 61.7239C208.988 61.5773 207.669 61.4881 205.254 61.4626Z" fill="#C7DCEA"/>
<path d="M203.84 93.9079C202.26 93.9079 201.769 93.7805 201.533 93.6467L201.419 93.5511C201.253 93.3599 200.692 92.5316 197.819 87.6763C195.703 84.1144 193.964 81.2471 192.619 79.1189C192.689 80.8711 192.804 83.2988 192.97 86.3764C193.154 89.403 193.237 91.5631 193.218 92.761V93.0859L192.925 93.1624C191.134 93.4619 189.318 93.5766 187.509 93.5065C183.17 93.5065 183.131 93.2389 183.068 92.7992C181.405 82.5406 181.214 72.0971 182.494 61.7811C182.552 61.2969 182.947 60.8381 187.076 60.6597C191.421 60.5259 191.555 60.7616 191.714 61.0356C195.161 66.3943 198.112 71.3516 200.495 75.7673L200.125 67.7961C199.921 64.2661 199.851 62.259 199.915 61.6473L199.94 61.367L200.202 61.3096C201.877 61.0802 203.566 60.9847 205.254 61.042C208.976 61.0866 209.25 61.2586 209.415 61.3606C209.702 61.5645 209.912 61.7174 210.498 76.2261C211.199 91.27 211.015 92.2703 210.951 92.5953C210.874 93.2134 210.072 93.6467 206.35 93.8187C205.299 93.8697 204.483 93.8824 203.846 93.8824M201.947 92.8757C202.183 92.9521 203.056 93.0923 206.274 92.9394C209.651 92.7801 210.123 92.4041 210.18 92.3277C210.263 91.8116 210.269 88.5173 209.708 76.207C209.288 65.4577 209.046 62.6477 208.925 62.0041C207.714 61.8767 206.497 61.8194 205.28 61.8385C203.738 61.8066 202.19 61.8703 200.654 62.0424C200.641 62.6796 200.679 64.2088 200.89 67.7706L201.431 79.2336L200.609 77.6661C198.124 72.9127 194.919 67.4712 191.103 61.5071C189.777 61.3478 188.439 61.3287 187.107 61.4434C184.055 61.5709 183.38 61.8576 183.233 61.9532C181.991 72.0908 182.188 82.3558 183.82 92.436C185.03 92.6017 186.26 92.659 187.483 92.6017C189.134 92.6463 190.778 92.5571 192.415 92.3468C192.415 91.1234 192.339 89.1099 192.179 86.37C191.969 82.3239 191.835 79.4056 191.791 77.6534L191.746 76.2516L192.504 77.424C193.938 79.635 195.952 82.9165 198.494 87.2047C200.979 91.3974 201.737 92.5762 201.954 92.8757H201.947Z" fill="white"/>
<path d="M234.839 74.6654C231.099 74.8183 228.926 74.9521 228.314 75.0732C228.199 76.2456 228.238 77.4307 228.422 78.5968C228.614 80.7186 228.792 81.8783 228.951 82.063C229.372 82.0057 230.653 81.9547 232.787 81.9292L233.093 84.5481C232.22 84.8475 231.309 85.0196 230.391 85.0578C226.078 85.0578 223.726 82.388 223.35 77.1058C223.108 75.2707 223.631 73.4228 224.797 71.9828C225.893 70.7021 227.511 70.0012 229.193 70.0713C231.373 70.1159 233.501 70.7276 235.361 71.849C236.139 70.6384 236.789 69.3385 237.286 67.9877C237.878 66.7643 238.292 65.4644 238.515 64.12C236.464 61.9982 233.055 60.9404 228.289 60.9404C223.497 60.9404 219.757 62.406 217.068 65.3434C214.455 68.1916 213.277 71.9637 213.557 76.6916C213.856 81.7253 215.341 85.8224 218.03 88.9446C220.993 92.4109 225.007 94.1504 230.079 94.1568C235.578 94.1568 239.618 92.8697 242.211 90.3018C242.268 90.27 242.077 87.6575 241.644 82.5155C241.166 77.4435 240.848 74.8565 240.688 74.7036C240.478 74.557 238.528 74.5379 234.845 74.659" fill="#C7DCEA"/>
<path d="M230.111 94.6029C224.943 94.6029 220.776 92.7869 217.743 89.2314C215.003 86.0391 213.461 81.8082 213.162 76.698C212.881 71.8745 214.099 67.9686 216.775 65.0567C219.527 62.0555 223.389 60.5454 228.257 60.5454C233.125 60.5454 236.642 61.6541 238.777 63.846L238.904 63.9798V64.1646C238.904 64.5788 238.77 65.439 237.649 68.1789C237.139 69.5616 236.476 70.8869 235.674 72.1294L235.482 72.3652L235.202 72.2059C233.392 71.1227 231.334 70.5237 229.225 70.4791C227.645 70.4026 226.116 71.0653 225.096 72.2696C224.007 73.6268 223.516 75.3727 223.745 77.0994C224.109 82.1459 226.275 84.6182 230.366 84.6182C231.15 84.5927 231.921 84.4525 232.666 84.2168L232.449 82.3498C230.57 82.3753 229.429 82.4199 229.047 82.4773L228.83 82.5091L228.671 82.3307C228.531 82.165 228.333 81.9357 228.034 78.5968C227.772 75.755 227.849 75.1242 227.964 74.8629L228.04 74.6909L228.218 74.659C228.856 74.5316 231.009 74.3978 234.801 74.2448C240.459 74.0601 240.695 74.2321 240.886 74.3659C241.134 74.6017 241.3 74.7546 242.039 82.5091C242.676 90.0852 242.714 90.4994 242.466 90.6523C239.822 93.2648 235.661 94.5901 230.117 94.5901M228.327 61.3419C223.663 61.3419 219.973 62.7819 217.361 65.6365C214.831 68.3891 213.678 72.1039 213.958 76.6916C214.251 81.5979 215.717 85.6313 218.323 88.6643C221.184 92.0095 225.135 93.7172 230.054 93.7172C235.349 93.7172 239.312 92.4874 241.822 90.0661C241.81 89.6328 241.708 88.008 241.249 82.5091C240.752 77.2269 240.516 75.5511 240.401 75.0477C238.566 74.9585 236.731 74.9649 234.896 75.0732C231.576 75.207 229.48 75.3281 228.652 75.4364C228.639 76.4877 228.69 77.5391 228.817 78.5841C228.888 79.5972 229.015 80.6039 229.2 81.5979C229.811 81.5533 230.977 81.5215 232.742 81.4896H233.131L233.52 84.854L233.227 84.9495C232.322 85.2618 231.373 85.4338 230.417 85.472C225.855 85.472 223.338 82.6302 222.943 77.0931C222.694 75.156 223.248 73.1935 224.485 71.677C225.644 70.3198 227.365 69.5679 229.149 69.638C231.277 69.6762 233.367 70.2497 235.215 71.3074C235.871 70.1796 236.445 68.9945 236.916 67.7774C237.445 66.6496 237.846 65.4581 238.108 64.2347C236.132 62.3104 232.844 61.3355 228.32 61.3355L228.327 61.3419Z" fill="white"/>
<path d="M264.786 69.625C264.971 66.8469 264.602 64.056 263.703 61.4245C263.238 60.6153 256.357 60.6471 243.052 61.5137C243.81 75.9331 244.734 86.5868 245.811 93.1307C248.054 93.3219 252.298 93.4174 258.542 93.4174C264.761 93.4812 267.705 93.4174 267.361 93.2263C267.667 91.0662 267.316 88.1862 266.309 84.5988C262.295 84.3758 258.281 84.3758 254.267 84.5988L253.878 81.1134C260.046 81.2982 263.111 81.2473 263.079 80.9733C262.429 75.6846 262.072 73.034 262.008 72.9702C261.69 72.6708 258.682 72.5561 252.979 72.6134L252.565 69.6314C256.643 69.8544 260.721 69.8544 264.799 69.6314" fill="#C7DCEA"/>
<path d="M263.117 93.8695C261.932 93.8695 260.454 93.8567 258.587 93.844C252.361 93.844 248.067 93.7484 245.824 93.5573L245.473 93.5254L245.41 93.1495C244.339 86.6183 243.409 75.8563 242.663 61.4878L242.644 61.1246L242.988 61.1055C263.193 59.7865 263.716 60.7041 264.035 61.2521C264.978 63.9601 265.373 66.8274 265.188 69.6884V70.0006L264.882 70.0325C260.932 70.2555 256.968 70.2555 253.011 70.0452L253.311 72.1798C261.658 72.1033 262.008 72.441 262.25 72.664C262.429 72.8361 262.473 72.8743 263.474 80.9538L263.493 81.1322L263.378 81.2915C263.193 81.5081 262.97 81.7757 254.324 81.5272L254.617 84.1397C258.504 83.9294 262.403 83.9358 266.29 84.1588L266.602 84.1907L266.692 84.5156C267.66 87.9883 268.036 90.8556 267.794 93.0348V93.347C267.743 93.7165 267.724 93.8695 263.117 93.8695ZM246.149 92.7098C248.449 92.8818 252.597 92.9647 258.491 92.9647C264.512 93.0284 266.424 92.9583 266.985 92.8882C267.144 90.2184 266.819 87.5359 266.016 84.9871C262.123 84.796 258.217 84.8087 254.324 85.0126L253.916 85.0254L253.432 80.6607L253.84 80.6734C260.262 80.8646 262.117 80.7626 262.646 80.6734C261.996 75.3912 261.76 73.7154 261.671 73.2184C261.276 73.1292 259.574 72.9444 253.024 73.0081H252.642L252.113 69.185L252.527 69.1977C258.396 69.3953 262.384 69.4016 264.404 69.2296C264.551 66.649 264.207 64.0557 263.385 61.6025C262.9 61.3094 259.918 60.8124 243.46 61.8701C244.199 75.7544 245.104 86.2233 246.142 92.6971L246.149 92.7098Z" fill="white"/>
<path d="M292.931 72.1101C291.739 64.8334 286.744 61.2461 277.932 61.2461C273.968 61.2461 270.527 61.3926 267.596 61.6794C267.89 72.2821 269.145 82.8402 271.337 93.2136C271.413 93.3729 272.891 93.4047 275.771 93.3091C278.601 93.2773 280.162 93.1817 280.455 93.0288C280.48 92.2132 280.066 88.7023 279.206 82.5662H280.493C281.914 84.2803 283.864 86.7971 286.342 90.1169C288.235 92.6847 289.191 93.9654 289.222 93.9718C289.981 94.0037 291.421 93.5322 293.549 92.5573C295.639 91.5569 296.779 90.8687 296.977 90.4928C297.289 89.9639 294.779 86.7334 289.503 80.8713C292.485 79.2656 293.625 76.3346 292.931 72.1101ZM280.716 75.022C280.295 75.022 279.62 74.9901 278.715 74.9328C278.365 72.1292 278.129 70.3897 278.002 69.7079C278.53 69.6378 279.059 69.6123 279.588 69.6187C282.054 69.6187 283.424 70.5362 283.704 72.3777C283.972 74.1427 282.978 75.022 280.722 75.022" fill="#C7DCEA"/>
<path d="M289.363 94.4115H289.273C289.031 94.4115 288.999 94.3733 286.043 90.3463C283.66 87.1604 281.755 84.6881 280.359 82.9932H279.671C280.499 88.9445 280.894 92.2834 280.869 93.1117V93.3347L280.684 93.4303C280.429 93.5641 279.658 93.7106 275.842 93.7489C271.247 93.9018 271.171 93.7361 270.993 93.3793L270.948 93.2519C268.756 82.8467 267.507 72.2631 267.214 61.6348V61.3099L267.514 61.278C270.445 60.9913 273.93 60.8447 277.874 60.8447C286.897 60.8447 292.083 64.5977 293.32 72.1165C294.008 76.2964 292.944 79.2976 290.14 81.0243C297.958 89.7219 297.595 90.3272 297.334 90.7732C297.181 91.0663 296.626 91.5952 293.772 92.9651C291.644 93.94 290.204 94.4179 289.363 94.4179M278.76 82.1458H280.64L280.786 82.3178C282.207 84.0318 284.176 86.5742 286.655 89.8812C288.445 92.3088 289.12 93.2136 289.369 93.5322C290.758 93.2837 292.102 92.8186 293.351 92.1495C295.932 90.9134 296.486 90.4228 296.601 90.2635C296.525 89.8621 295.575 88.1671 289.242 81.1326L288.866 80.7121L289.286 80.4891C292.153 78.9407 293.218 76.1945 292.549 72.1101C291.395 65.0374 286.642 61.6476 278.002 61.6476C274.21 61.6476 270.852 61.7814 268.011 62.049C268.329 72.416 269.559 82.732 271.687 92.8759C273.032 92.946 274.376 92.946 275.714 92.8696C277.167 92.895 278.613 92.8313 280.06 92.6784C280.015 91.5251 279.595 88.1098 278.83 82.5599L278.773 82.133L278.76 82.1458ZM280.78 75.449C280.34 75.449 279.658 75.4171 278.753 75.3598L278.371 75.3343L278.32 74.9328C277.976 72.1484 277.74 70.4088 277.613 69.7334L277.543 69.3575L277.887 69.3065C278.429 69.2364 278.977 69.2046 279.524 69.2109C282.902 69.2109 283.87 70.9313 284.093 72.3841C284.297 73.7795 283.902 75.4426 280.773 75.4426L280.78 75.449ZM279.059 74.5505C279.767 74.5951 280.302 74.6143 280.659 74.6143C283.341 74.6143 283.456 73.3399 283.316 72.3841C283.163 71.371 282.615 70.0329 279.652 70.0329C279.18 70.0329 278.785 70.0457 278.46 70.0775C278.594 70.8867 278.798 72.3841 279.066 74.5442L279.059 74.5505Z" fill="white"/>
<path d="M39.179 84.5223C35.3495 87.1603 31.8896 88.4856 28.7993 88.4856C26.206 88.4856 24.2052 87.7401 22.7907 86.2427C20.86 84.2292 20.3056 81.1389 21.1021 76.9908C21.6437 73.875 23.2558 71.0523 25.6516 68.9878C27.8117 67.0571 30.6089 65.9803 33.5081 65.9675C36.8915 66.0631 40.173 67.1655 42.9384 69.1216C43.9324 68.3379 45.4107 66.2224 47.3604 62.7689C49.1191 59.5766 50.094 57.5185 50.2851 56.5882C48.0677 53.6253 43.2188 52.147 35.7255 52.1534C21.2232 51.9177 8.63245 62.119 5.85433 76.3536C4.17854 84.2037 4.75838 90.6329 7.63845 95.5711C10.818 101.07 16.4125 103.848 24.3836 103.848C32.8582 103.848 39.4275 101.312 44.1108 96.2338C42.1547 89.4414 40.5044 85.5673 39.1726 84.5096" fill="#C7DCEA"/>
<path d="M24.3071 104.301C16.2468 104.301 10.5058 101.44 7.28161 95.8644C4.36969 90.8689 3.77711 84.2805 5.46564 76.3666C6.84833 69.3767 10.6268 63.0877 16.1512 58.5892C21.6883 54.0652 28.6527 51.6503 35.8019 51.7777C43.3653 51.7777 48.3417 53.307 50.6101 56.3336L50.7056 56.4547L50.6674 56.6203C50.4635 57.608 49.495 59.6661 47.6981 62.9348C45.6974 66.4839 44.2064 68.6185 43.1423 69.4468L42.9065 69.6316L42.6963 69.4914C39.9819 67.5735 36.7641 66.4903 33.4444 66.382C30.6535 66.4011 27.9582 67.4333 25.8746 69.2875C23.5744 71.2756 22.0324 73.9963 21.5099 76.9911C20.7389 80.9862 21.2742 83.9937 23.1156 85.9053C24.4664 87.3262 26.4035 88.0462 28.8885 88.0462C31.8705 88.0462 35.2858 86.7336 39.0197 84.1658L39.2682 83.9937L39.4721 84.153C40.8739 85.2554 42.5178 89.1167 44.525 96.0365L44.6014 96.2914L44.3975 96.508C39.6505 101.65 32.8836 104.282 24.3199 104.282M35.6681 52.536C21.3888 52.2875 8.98927 62.3231 6.26212 76.3475C4.62456 84.0574 5.19802 90.442 8.02075 95.2782C11.1302 100.643 16.6801 103.39 24.4856 103.39C32.2911 103.39 39.1217 100.943 43.6584 96.1639C41.8552 89.9514 40.3387 86.243 39.1025 85.0323C35.3113 87.5938 31.8195 88.9 28.7356 88.9C26.0594 88.9 23.9567 88.1099 22.4912 86.5616C20.4904 84.4716 19.8978 81.2347 20.7262 76.9783C21.2996 73.7542 22.9691 70.8232 25.4541 68.6822C27.697 66.6878 30.5898 65.5728 33.5909 65.5536C36.9489 65.6492 40.2049 66.7069 42.9702 68.6058C43.9069 67.7392 45.2768 65.7129 47.0355 62.6035C48.1569 60.7365 49.1127 58.774 49.8709 56.7287C47.6854 53.9442 42.9065 52.5424 35.6618 52.5424H35.6681V52.536Z" fill="white"/>
<path d="M326.383 75.2387C323.745 73.2825 320.005 71.7788 315.169 70.7147C313.251 70.3961 311.365 69.9118 309.53 69.2619C308.714 68.956 308.121 68.2551 307.943 67.4077C307.701 66.0823 308.918 65.426 311.607 65.4197C314.327 65.4898 317.029 65.9485 319.616 66.7896L323.592 68.0895C323.974 68.0449 324.522 66.1715 325.23 62.5014C325.867 58.7738 325.937 56.7731 325.44 56.4609C321.757 53.9822 316.258 52.7461 308.937 52.7525C303.444 52.7525 299.303 54.2116 296.525 57.1299C293.944 59.8953 293.007 63.3934 293.702 67.618C294.505 72.4542 296.327 76.1753 299.188 78.7559C301.8 81.1199 305.458 82.7511 310.148 83.6622C314.888 84.5734 317.424 85.8669 317.756 87.5427C318.061 89.1356 316.717 89.9321 313.716 89.9385C310.912 89.8238 308.166 89.1293 305.643 87.9059C304.547 87.4598 303.476 86.9501 302.431 86.3894L300.532 85.4527C300.15 85.3062 299.653 87.2305 299.035 91.2511C298.417 95.3609 298.251 97.7758 298.551 98.4704C303.655 101.599 309.74 103.166 316.806 103.179C323.586 103.179 328.384 101.312 331.207 97.5783C333.532 94.4752 334.246 90.8242 333.341 86.6124C332.29 81.6869 329.97 77.9021 326.377 75.2387" fill="#C7DCEA"/>
<path d="M316.895 103.625C309.791 103.625 303.559 102.007 298.404 98.8399L298.258 98.7507L298.188 98.5851C297.952 98.0371 297.799 96.6863 298.64 91.1045C299.513 85.4527 299.959 85.2042 300.201 85.0768C300.329 85.0067 300.481 85.0003 300.615 85.0513L302.552 86.0007C303.585 86.555 304.642 87.0584 305.725 87.4981C308.204 88.7024 310.899 89.3778 313.646 89.4988C316.366 89.4988 317.615 88.8362 317.367 87.5427C317.176 86.555 315.774 85.1532 310.16 84.0764C305.407 83.1589 301.641 81.4639 298.971 79.049C296.034 76.3983 294.135 72.537 293.326 67.6116C292.612 63.2787 293.594 59.6595 296.238 56.8241C299.073 53.8548 303.317 52.3574 308.88 52.3574C316.252 52.3574 321.878 53.6254 325.625 56.1423C326.128 56.4609 326.561 57.2319 325.637 62.6479C324.535 68.4017 324.07 68.459 323.739 68.4973H323.656L319.584 67.1783C317.035 66.3563 314.378 65.9039 311.696 65.8275C309.281 65.8275 308.153 66.3563 308.344 67.4077C308.484 68.0958 308.975 68.6629 309.638 68.8987C311.441 69.5295 313.295 70.001 315.175 70.3132C320.062 71.3837 323.892 72.9321 326.574 74.9201C330.346 77.781 332.908 81.9546 333.755 86.606C334.673 90.9134 333.946 94.7174 331.57 97.8905C328.715 101.682 323.77 103.619 316.908 103.619M298.895 98.19C303.871 101.191 309.88 102.72 316.742 102.72C323.605 102.72 328.148 100.873 330.888 97.247C333.137 94.2458 333.832 90.6585 332.971 86.5997C332.181 82.2031 329.773 78.2653 326.217 75.5573C323.649 73.6521 319.935 72.1611 315.181 71.1161C313.231 70.7911 311.314 70.3005 309.453 69.6378C308.484 69.2683 307.777 68.4272 307.573 67.4141C307.28 65.8275 308.618 65.0246 311.549 65.0246C314.308 65.0947 317.042 65.5599 319.667 66.4073L323.503 67.6626C323.605 67.4905 324.038 66.5985 324.854 62.3548C325.663 57.6397 325.332 56.8623 325.262 56.754C321.706 54.3709 316.239 53.1539 309.026 53.1539C303.648 53.1539 299.551 54.5876 296.843 57.4421C294.352 60.1183 293.428 63.54 294.11 67.6243C294.893 72.3267 296.677 75.9778 299.436 78.4628C301.966 80.7503 305.579 82.3624 310.16 83.2481C315.175 84.2038 317.794 85.612 318.17 87.549C318.533 89.4224 317.067 90.3718 313.811 90.3718C310.95 90.2507 308.14 89.5498 305.56 88.3009C304.451 87.8485 303.374 87.3388 302.317 86.7717L300.622 85.937C300.456 86.2301 300.074 87.3133 299.449 91.3976C298.736 96.1829 298.787 97.7185 298.888 98.2028L298.895 98.19Z" fill="white"/>
<path d="M74.1859 61.3802C72.4527 61.3802 70.7132 61.4758 68.9928 61.6861C68.6105 63.3109 68.0115 67.0639 67.1896 73.0088C64.5453 72.9833 61.9201 72.9833 59.2949 73.0088C60.257 65.3626 60.6967 61.4949 60.6457 61.291C60.5438 61.0616 59.0081 60.9278 56.0516 60.9023C53.0377 60.8705 51.4703 61.0616 51.3492 61.4631C49.4568 67.58 48.1569 73.869 47.4751 80.2345H76.1866C76.3332 79.0429 76.4925 77.775 76.6581 76.4178C77.8943 66.6115 78.4104 61.7371 78.232 61.5905C78.0536 61.444 76.6964 61.3739 74.1795 61.3739" fill="white"/>
<path d="M95.5761 61.1569C93.6773 61.176 91.7785 61.2907 89.8861 61.501C89.0577 62.0171 86.4453 68.1659 81.9531 80.2342H106.23C105.841 78.4373 105.395 76.4812 104.904 74.3466C102.878 65.5917 101.814 61.2589 101.68 61.2015C99.6477 61.055 97.6087 61.0422 95.5761 61.1569ZM91.7785 79.5906C91.9951 79.1382 92.524 77.6536 93.3651 75.1558L95.1237 70.1476L95.3786 70.103L96.175 75.0157C96.551 77.6345 96.7995 79.1573 96.9333 79.5843C94.7223 79.5524 93.0082 79.5524 91.7849 79.5843L91.7785 79.5906Z" fill="white"/>
<path d="M117.973 61.163C115.055 61.2458 113.526 61.3605 113.379 61.5071C113.201 61.711 112.767 66.458 112.06 75.9265C111.945 77.4622 111.837 78.8958 111.735 80.2403H121.331C122.038 73.9513 122.395 67.624 122.414 61.2904C122.395 61.1184 120.917 61.0738 117.98 61.163" fill="white"/>
<path d="M140.663 61.163C137.751 61.2458 136.222 61.3605 136.075 61.5071C135.897 61.711 135.61 66.458 135.196 75.9265C135.126 77.4622 135.062 78.8958 135.005 80.2403H144.601C145.117 73.9385 145.283 67.6113 145.111 61.2904C145.085 61.1184 143.607 61.0738 140.67 61.163" fill="white"/>
<path d="M158.695 61.5073C158.262 68.6884 157.975 74.9455 157.842 80.2405H176.518C176.467 75.4361 176.409 73.0212 176.358 72.9639C176.071 72.6644 173.077 72.5497 167.368 72.607L167.291 69.625C171.363 69.848 175.447 69.848 179.519 69.625C179.997 66.1842 179.946 63.4507 179.359 61.4245C178.983 60.6153 172.095 60.6471 158.695 61.5137" fill="white"/>
<path d="M205.254 61.4626C203.591 61.4116 201.928 61.4945 200.278 61.7239C200.221 62.3037 200.291 64.3236 200.495 67.809L200.947 77.5069C198.437 72.7089 195.244 67.2865 191.364 61.246C191.249 61.0421 189.815 60.9847 187.076 61.0739C184.31 61.1886 182.902 61.4499 182.851 61.8577C182.048 67.9491 181.812 74.1043 182.163 80.2404H192.262C192.218 79.2209 192.186 78.3734 192.167 77.6917C192.638 78.4244 193.186 79.2782 193.779 80.2404H210.275C210.224 78.9915 210.167 77.6726 210.097 76.2453C209.715 66.6493 209.428 61.8704 209.224 61.7239C208.995 61.5773 207.676 61.4881 205.261 61.4626" fill="white"/>
<path d="M223.338 77.0989C223.096 75.2638 223.618 73.416 224.784 71.976C225.88 70.6952 227.499 69.9943 229.181 70.0644C231.36 70.109 233.488 70.7207 235.349 71.8422C236.126 70.6315 236.776 69.3317 237.273 67.9808C237.865 66.7575 238.28 65.4576 238.503 64.1131C236.451 61.9913 233.042 60.9336 228.276 60.9336C223.484 60.9336 219.744 62.3991 217.055 65.3365C214.443 68.1847 213.264 71.9569 213.544 76.6848C213.614 77.8763 213.754 79.0615 213.977 80.2275H223.886C223.586 79.208 223.395 78.1503 223.331 77.0862" fill="white"/>
<path d="M240.682 74.71C240.472 74.5635 238.522 74.5443 234.839 74.6654C231.099 74.8183 228.926 74.9521 228.314 75.0668C228.199 76.2393 228.231 77.4244 228.422 78.5905C228.48 79.2276 228.537 79.7629 228.594 80.2344H241.415C241.058 76.6662 240.809 74.8311 240.682 74.7036" fill="white"/>
<path d="M243.052 61.5073C243.428 68.6884 243.849 74.9455 244.307 80.2405H262.983C262.391 75.4361 262.066 73.0212 262.002 72.9639C261.683 72.6644 258.676 72.5497 252.973 72.607L252.559 69.625C256.631 69.848 260.715 69.848 264.786 69.625C264.971 66.8469 264.602 64.056 263.703 61.4245C263.238 60.6153 256.357 60.6471 243.052 61.5137" fill="white"/>
<path d="M277.938 61.2461C273.975 61.2461 270.534 61.3926 267.603 61.6794C267.768 67.8919 268.278 74.0853 269.119 80.2405H290.49C292.733 78.5456 293.543 75.8376 292.937 72.1164C291.746 64.8334 286.744 61.2461 277.938 61.2461ZM280.716 75.022C280.295 75.022 279.62 74.9901 278.715 74.9328C278.365 72.1292 278.129 70.3897 278.002 69.7079C278.53 69.6378 279.059 69.6123 279.588 69.6187C282.054 69.6187 283.424 70.5362 283.704 72.3777C283.972 74.1363 282.978 75.022 280.722 75.022H280.716Z" fill="white"/>
<path d="M16.3551 58.8692C10.9135 63.2913 7.19877 69.4783 5.86068 76.3599C5.57395 77.6916 5.36368 78.9851 5.21075 80.2403H20.7644C20.7771 79.1508 20.8918 78.0612 21.1021 76.9971C21.6437 73.8812 23.2558 71.0522 25.6516 68.9941C27.8116 67.0634 30.6089 65.9865 33.5081 65.9738C36.8915 66.0694 40.173 67.1717 42.9384 69.1279C43.9324 68.3441 45.4106 66.2287 47.3604 62.7751C49.119 59.5829 50.0939 57.5248 50.2851 56.5945C48.0677 53.6316 43.2187 52.1533 35.7255 52.1597C28.6782 52.0195 21.8094 54.3962 16.3551 58.8692Z" fill="white"/>
<path d="M311.613 65.426C314.334 65.4961 317.036 65.9549 319.622 66.796L323.599 68.0958C323.981 68.0512 324.529 66.1779 325.236 62.5077C325.873 58.7802 325.943 56.7794 325.446 56.4672C321.763 53.9886 316.265 52.7524 308.943 52.7588C303.451 52.7588 299.309 54.218 296.531 57.1363C293.95 59.9016 293.014 63.3998 293.708 67.6243C294.511 72.4605 296.333 76.1817 299.194 78.7623C299.8 79.3039 300.45 79.8009 301.131 80.2469H330.913C329.754 78.2971 328.212 76.6022 326.389 75.2514C323.751 73.2952 320.011 71.7915 315.175 70.7274C313.257 70.4088 311.371 69.9245 309.536 69.2746C308.727 68.9688 308.128 68.2678 307.949 67.4204C307.707 66.1014 308.924 65.4388 311.613 65.4388" fill="white"/>
<path d="M168.941 34.2489L190.816 35.1792C190.816 35.1792 193.307 38.3651 193.033 46.0049C192.804 52.5488 184.979 55.2823 170.949 55.2823C158.377 55.2823 149.303 53.1541 148.303 47.9802C147.405 43.8895 148.093 39.614 150.227 36.0075C152.011 32.9108 168.935 34.2552 168.935 34.2552" fill="#292154"/>
<path d="M194.626 23.4547C194.626 36.4086 183.616 46.9094 170.031 46.9094C156.446 46.9094 145.436 36.4086 145.436 23.4547C145.436 10.5008 156.453 0 170.031 0C183.609 0 194.626 10.5008 194.626 23.4547Z" fill="#292154"/>
<path d="M164.156 52.071C160.403 52.071 151.903 49.7771 151.189 46.6103C150.438 43.2715 150.985 36.0076 155.669 30.7126L155.885 30.4641L156.21 30.4322C156.586 30.394 165.367 29.6103 169.196 31.5537C170.681 32.108 171.624 32.8726 172.006 33.8348C172.318 34.7014 172.236 35.6571 171.777 36.4536C170.063 39.7733 168.999 43.3862 168.629 47.1009C168.33 49.586 168.113 51.3764 165.207 51.9818C164.857 52.0455 164.507 52.0773 164.15 52.071" fill="#660200"/>
<path d="M156.287 31.2602C151.954 36.1601 151.234 43.0481 151.999 46.4251C152.61 49.1459 162.238 51.752 165.048 51.1721C169.566 50.2355 165.845 46.5589 171.044 36.09C173.994 30.1515 156.293 31.2602 156.293 31.2602" fill="#890300"/>
<path d="M156.287 31.26C151.954 36.1599 151.234 43.0479 151.999 46.425C152.61 49.1457 162.225 51.72 165.048 51.172C167.871 50.624 164.825 46.1191 170.025 35.6502C172.975 29.7117 156.293 31.26 156.293 31.26" fill="#BF0900"/>
<path d="M156.287 31.26C155.223 32.6491 154.267 34.1146 153.432 35.6566C155.204 40.7349 161.41 44.7619 166.749 45.775C167.38 42.2705 168.483 38.8616 170.018 35.6502C172.968 29.7117 156.287 31.26 156.287 31.26Z" fill="#A00400"/>
<path d="M153.082 39.5883C152.553 41.4106 152.591 43.354 153.19 45.1573C153.827 47.1708 160.25 49.6494 163.27 49.2416C165.01 49.0059 162.391 47.1389 160.556 45.9155C154.739 42.0351 153.694 36.8293 153.082 39.5883Z" fill="#DE1D18"/>
<path d="M176.925 52.5295C176.084 52.5614 175.243 52.4658 174.421 52.2619C171.598 51.3508 171.573 49.5412 171.547 47.037C171.586 43.3031 170.91 39.5947 169.566 36.1157C169.196 35.2746 169.222 34.3125 169.623 33.4841C170.107 32.573 171.127 31.9103 172.663 31.5216C176.683 29.9988 185.33 31.7319 185.699 31.8083L186.024 31.8721L186.215 32.1397C190.3 37.9062 190.058 45.1892 188.949 48.4261C188.019 51.1469 181.092 52.5232 176.925 52.5232" fill="#660200"/>
<path d="M185.534 32.6237C189.312 37.9633 189.28 44.8895 188.159 48.1646C187.254 50.8025 177.403 52.3573 174.676 51.4716C170.286 50.0506 174.383 46.801 170.343 35.8287C168.056 29.6098 185.527 32.6237 185.527 32.6237" fill="#890300"/>
<path d="M185.534 32.6242C189.312 37.9638 189.28 44.8899 188.159 48.1651C187.254 50.803 177.416 52.3195 174.676 51.472C171.936 50.6246 175.441 46.4701 171.407 35.5042C169.12 29.2853 185.534 32.6242 185.534 32.6242Z" fill="#BF0900"/>
<path d="M185.534 32.6237C186.247 33.6432 186.853 34.7391 187.324 35.8861C186.757 39.964 183.622 45.3737 173.484 45.1635C173.223 43.1308 172.49 38.4539 171.401 35.4974C169.113 29.2785 185.527 32.6173 185.527 32.6173" fill="#A00400"/>
<g opacity="0.35">
<mask id="mask3_53_904" style="mask-type:luminance" maskUnits="userSpaceOnUse" x="63" y="21" width="213" height="37">
<path d="M275.95 21.1543H63.4111V57.8178H275.95V21.1543Z" fill="white"/>
</mask>
<g mask="url(#mask3_53_904)">
<path d="M264.92 57.8178C263.206 57.8497 261.562 57.1488 260.39 55.8935C259.447 54.8549 258.995 53.4595 259.154 52.064L259.536 48.6742C259.893 46.4568 261.511 44.6536 263.671 44.0546C263.034 43.169 262.735 42.0857 262.818 40.9962C262.9 39.9512 263.321 38.9636 264.003 38.1734C264.761 37.2177 265.838 36.5741 267.042 36.3638C267.444 36.2746 267.851 36.23 268.259 36.23C269.667 36.2237 271.018 36.7716 272.019 37.7593C272.904 38.645 273.401 39.8492 273.388 41.0981C273.376 42.2004 272.993 43.2709 272.299 44.1247C274.357 44.7747 275.791 46.6352 275.905 48.7889L275.95 52.1787C275.95 53.5869 275.389 54.9377 274.382 55.9254C273.146 57.1488 271.471 57.8242 269.731 57.8178H264.92Z" fill="black"/>
<path d="M268.265 37.3961C270.362 37.3005 272.133 38.9253 272.229 41.0216C272.229 41.0471 272.229 41.0726 272.229 41.0917C272.146 42.9651 270.795 44.5389 268.954 44.9085H270.081C272.617 44.9085 274.714 46.6289 274.746 48.8144L274.79 52.2042C274.822 54.6128 272.541 56.6645 269.731 56.6645H264.927C262.11 56.6645 260.039 54.6128 260.313 52.2042L260.696 48.8144C260.944 46.6352 263.213 44.9085 265.749 44.9085H266.927C265.13 44.5516 263.869 42.9205 263.977 41.0917C264.181 39.3076 265.513 37.8612 267.271 37.5108C267.596 37.4343 267.928 37.3961 268.259 37.3961H268.265ZM268.265 35.0704C267.781 35.0704 267.297 35.1277 266.819 35.2297C265.354 35.4973 264.035 36.281 263.104 37.4471C262.27 38.4219 261.766 39.6326 261.658 40.9133C261.588 41.7926 261.722 42.672 262.047 43.4875C260.065 44.4624 258.689 46.3549 258.383 48.5468L258 51.9366C257.803 53.6634 258.357 55.3901 259.523 56.6709C260.912 58.1746 262.875 59.0093 264.92 58.9775H269.725C271.776 58.9902 273.745 58.1874 275.204 56.741C276.428 55.5367 277.116 53.8864 277.11 52.166L277.065 48.7762C276.995 46.6416 275.816 44.6982 273.962 43.6468C274.338 42.8567 274.542 41.9902 274.548 41.1109C274.561 39.5498 273.949 38.046 272.84 36.9437C271.617 35.7394 269.967 35.064 268.253 35.0704" fill="black"/>
<path d="M69.2095 57.8178C67.4954 57.8497 65.8515 57.1488 64.6791 55.8935C63.7297 54.8549 63.2837 53.4595 63.443 52.064L63.8253 48.6742C64.1821 46.4568 65.8005 44.6536 67.9606 44.0546C67.3234 43.169 67.0239 42.0857 67.1068 40.9962C67.1896 39.9512 67.6101 38.9636 68.2919 38.1734C69.0502 37.2177 70.127 36.5741 71.3313 36.3638C71.7327 36.2746 72.1405 36.23 72.5483 36.23C73.9565 36.2237 75.3073 36.7716 76.3077 37.7593C77.1934 38.645 77.6904 39.8492 77.6776 41.0981C77.6649 42.2004 77.2826 43.2709 76.588 44.1247C78.6462 44.7747 80.0798 46.6352 80.1945 48.7889L80.2391 52.1787C80.2391 53.5869 79.6784 54.9377 78.6716 55.9254C77.4355 57.1424 75.7597 57.8242 74.0266 57.8114H69.2158L69.2095 57.8178Z" fill="black"/>
<path d="M72.5547 37.3961C74.651 37.3005 76.4224 38.9253 76.5179 41.0216C76.5179 41.0471 76.5179 41.0726 76.5179 41.0917C76.4351 42.9651 75.0843 44.5389 73.2428 44.9085H74.3706C76.9066 44.9085 79.003 46.6289 79.0348 48.8144L79.0794 52.2042C79.1113 54.6128 76.8302 56.6645 74.0202 56.6645H69.2158C66.3995 56.6645 64.335 54.6128 64.6026 52.2042L64.9849 48.8144C65.2334 46.6352 67.5018 44.9085 70.0378 44.9085H71.2166C69.4197 44.5516 68.1581 42.9205 68.2664 41.0917C68.4703 39.3076 69.802 37.8612 71.5607 37.5108C71.8856 37.4343 72.217 37.3961 72.5483 37.3961H72.5547ZM72.5547 35.0704C72.0704 35.0704 71.5862 35.1277 71.1083 35.2297C69.6427 35.4973 68.3238 36.281 67.3935 37.4471C66.5588 38.4219 66.0554 39.6326 65.9534 40.9133C65.8834 41.7926 66.0172 42.672 66.3421 43.4875C64.3605 44.4624 62.9842 46.3549 62.6783 48.5468L62.296 51.9366C62.0985 53.6634 62.6528 55.3901 63.8189 56.6709C65.2079 58.1746 67.1705 59.0093 69.2158 58.9775H74.0202C76.0719 58.9902 78.0408 58.1874 79.5 56.741C80.7234 55.5367 81.4115 53.8864 81.4051 52.166L81.3605 48.7762C81.2904 46.6416 80.1117 44.6982 78.2575 43.6468C78.6334 42.8567 78.8373 41.9902 78.8437 41.1109C78.8564 39.5498 78.2447 38.046 77.136 36.9437C75.9126 35.7394 74.2623 35.064 72.5483 35.0704" fill="black"/>
<path d="M94.2317 56.2374C92.0652 56.282 89.9817 55.3963 88.5034 53.8097C87.3182 52.5099 86.7575 50.764 86.955 49.0181L87.4648 44.5196C87.7897 41.665 90.1728 39.3138 93.2313 38.5556C92.2118 37.3832 91.7084 35.8539 91.8231 34.3056C91.9314 32.9993 92.4539 31.7568 93.3141 30.7692C94.2635 29.5713 95.6207 28.7621 97.1245 28.5008C97.6279 28.3861 98.1503 28.3288 98.6665 28.3288C100.431 28.316 102.133 29.0042 103.388 30.2467C104.497 31.349 105.108 32.8464 105.096 34.4075C105.077 35.9814 104.452 37.4851 103.362 38.6193C106.274 39.454 108.403 41.8307 108.441 44.6343L108.498 49.1328C108.498 50.9042 107.791 52.5991 106.523 53.8352C104.949 55.39 102.821 56.2502 100.61 56.231H94.2317V56.2374Z" fill="black"/>
<path d="M98.6728 29.4952C101.604 29.4952 103.961 31.6552 103.942 34.4015C103.828 36.8929 102.037 38.9828 99.5904 39.4671H101.088C104.458 39.4671 107.243 41.7546 107.281 44.6537L107.339 49.1523C107.377 52.3573 104.356 55.0781 100.616 55.0781H94.2316C90.4977 55.0781 87.7451 52.3573 88.1083 49.1523L88.6181 44.6537C88.9494 41.7546 91.9633 39.4671 95.334 39.4671H96.9014C94.512 38.9956 92.8426 36.8291 92.9828 34.4015C93.2504 32.0311 95.0218 30.1132 97.3538 29.6481C97.7871 29.5461 98.2268 29.4952 98.6664 29.4952H98.6728ZM98.6728 27.1694C98.0802 27.1694 97.4813 27.2395 96.9014 27.367C95.1301 27.6856 93.5371 28.635 92.4157 30.0431C91.4026 31.2155 90.7909 32.6811 90.6698 34.2231C90.5678 35.5102 90.8291 36.8036 91.428 37.9506C88.6945 39.0338 86.7447 41.4869 86.3115 44.3925L85.8017 48.891C85.566 50.9682 86.235 53.0391 87.6368 54.5874C89.3381 56.4225 91.7339 57.442 94.2316 57.4038H100.616C103.139 57.4229 105.561 56.4353 107.351 54.6639C108.836 53.2047 109.664 51.2104 109.658 49.1331L109.601 44.6346C109.556 42.5128 108.575 40.5248 106.918 39.1995C106.395 38.7662 105.828 38.3966 105.223 38.1035C105.892 36.9948 106.249 35.7268 106.262 34.4397C106.281 32.5664 105.542 30.7695 104.216 29.4506C102.738 27.9914 100.744 27.1822 98.6728 27.1949" fill="black"/>
<path d="M238.286 56.2374C236.12 56.282 234.036 55.3963 232.558 53.8097C231.373 52.5099 230.812 50.764 231.009 49.0181L231.519 44.5196C231.844 41.665 234.227 39.3138 237.286 38.5556C236.266 37.3832 235.763 35.8539 235.877 34.3056C235.986 32.9993 236.508 31.7568 237.368 30.7692C238.318 29.5713 239.675 28.7621 241.179 28.5008C241.682 28.3861 242.205 28.3288 242.721 28.3288C244.486 28.316 246.187 29.0042 247.442 30.2467C248.551 31.349 249.163 32.8464 249.15 34.4075C249.131 35.9814 248.506 37.4851 247.417 38.6193C250.329 39.454 252.457 41.8307 252.495 44.6343L252.553 49.1328C252.553 50.9042 251.845 52.5991 250.577 53.8352C249.003 55.39 246.875 56.2502 244.664 56.231H238.286V56.2374Z" fill="black"/>
<path d="M242.727 29.4952C245.658 29.4952 248.016 31.6552 247.997 34.4015C247.882 36.8929 246.091 38.9828 243.645 39.4671H245.142C248.513 39.4671 251.297 41.7546 251.335 44.6537L251.393 49.1523C251.431 52.3573 248.411 55.0781 244.671 55.0781H238.286C234.552 55.0781 231.799 52.3573 232.163 49.1523L232.672 44.6537C233.004 41.7546 236.018 39.4671 239.388 39.4671H240.956C238.566 38.9956 236.897 36.8291 237.037 34.4015C237.305 32.0311 239.076 30.1132 241.408 29.6481C241.841 29.5461 242.281 29.4952 242.721 29.4952H242.727ZM242.727 27.1694C242.135 27.1694 241.536 27.2395 240.956 27.367C239.184 27.6856 237.591 28.635 236.47 30.0431C235.457 31.2155 234.845 32.6811 234.724 34.2231C234.622 35.5102 234.883 36.8036 235.482 37.9506C232.749 39.0338 230.799 41.4869 230.366 44.3925L229.856 48.891C229.614 50.9682 230.283 53.0391 231.691 54.5874C233.392 56.4225 235.788 57.442 238.286 57.3974H244.671C247.194 57.4165 249.615 56.4289 251.406 54.6575C252.89 53.1984 253.719 51.204 253.712 49.1268L253.655 44.6283C253.61 42.5064 252.629 40.5184 250.972 39.1931C250.45 38.7598 249.883 38.3902 249.277 38.0971C249.946 36.9884 250.303 35.7204 250.316 34.4333C250.335 32.56 249.596 30.7631 248.271 29.4442C246.792 27.985 244.798 27.1758 242.721 27.1885" fill="black"/>
<path d="M124.001 54.014C121.478 54.065 119.05 53.0391 117.329 51.1913C115.96 49.6875 115.31 47.6677 115.539 45.6478L116.144 40.2763C116.533 36.8419 119.49 34.0447 123.23 33.2673C121.892 31.8846 121.204 29.9986 121.35 28.0807C121.478 26.5642 122.083 25.1305 123.083 23.9836C124.179 22.5881 125.759 21.6515 127.505 21.352C128.098 21.2182 128.697 21.1481 129.302 21.1481C131.348 21.1354 133.323 21.9318 134.782 23.3655C136.063 24.6399 136.77 26.373 136.757 28.1762C136.725 30.1324 135.903 31.9866 134.476 33.3247C138.051 34.1912 140.701 37.0267 140.746 40.391L140.816 45.7625C140.816 47.8142 139.994 49.7831 138.529 51.2168C136.693 53.0264 134.208 54.0331 131.634 54.014H124.014H124.001Z" fill="black"/>
<path d="M129.296 22.3136C132.8 22.3136 135.61 24.8879 135.585 28.1694C135.559 31.0558 133.348 33.5408 130.392 34.2162H132.182C136.203 34.2162 139.529 36.9497 139.574 40.4033L139.644 45.7747C139.688 49.5978 136.082 52.8475 131.622 52.8475H124.001C119.541 52.8475 116.259 49.5978 116.692 45.7747L117.298 40.4033C117.686 36.9434 121.293 34.2162 125.313 34.2162H127.18C124.332 33.6491 122.331 31.0685 122.503 28.1694C122.822 25.3403 124.937 23.0464 127.728 22.4921C128.244 22.371 128.767 22.3136 129.296 22.3073V22.3136ZM129.296 19.9879C128.614 19.9879 127.939 20.0644 127.27 20.2109C125.256 20.5678 123.44 21.651 122.172 23.2503C121.025 24.5756 120.324 26.2387 120.184 27.9909C120.057 29.6158 120.439 31.2342 121.28 32.6296C117.89 33.9167 115.367 36.765 114.978 40.142L114.367 45.5135C114.099 47.8647 114.857 50.2159 116.444 51.9618C118.387 54.0517 121.127 55.2178 123.982 55.1732H131.602C134.489 55.1923 137.267 54.0645 139.325 52.0319C141.014 50.3752 141.957 48.1132 141.95 45.7492L141.88 40.3778C141.829 37.9756 140.714 35.7263 138.841 34.229C138.114 33.63 137.312 33.133 136.445 32.7634C137.369 31.419 137.872 29.826 137.891 28.1885C137.911 26.073 137.076 24.0404 135.578 22.5494C133.903 20.8927 131.634 19.9752 129.277 19.9879" fill="black"/>
<path d="M208.262 54.014C205.739 54.065 203.311 53.0391 201.591 51.1913C200.221 49.6875 199.571 47.6677 199.8 45.6478L200.412 40.2763C200.801 36.8419 203.757 34.0447 207.497 33.2673C206.159 31.8846 205.471 29.9986 205.618 28.0807C205.745 26.5642 206.35 25.1305 207.351 23.9836C208.447 22.5881 210.027 21.6515 211.773 21.352C212.365 21.2182 212.964 21.1481 213.57 21.1481C215.615 21.1354 217.59 21.9318 219.049 23.3655C220.33 24.6399 221.037 26.373 221.025 28.1762C220.993 30.1324 220.171 31.9866 218.744 33.3247C222.318 34.1912 224.975 37.0267 225.013 40.391L225.077 45.7625C225.077 47.8142 224.255 49.7831 222.79 51.2168C220.955 53.0264 218.47 54.0331 215.895 54.014H208.275H208.262Z" fill="black"/>
<path d="M213.563 22.3136C217.068 22.3136 219.878 24.8879 219.852 28.1694C219.827 31.0558 217.616 33.5408 214.659 34.2162H216.45C220.47 34.2162 223.796 36.9497 223.841 40.4033L223.905 45.7747C223.949 49.5978 220.343 52.8475 215.883 52.8475H208.262C203.802 52.8475 200.52 49.5978 200.953 45.7747L201.565 40.4033C201.954 36.9434 205.56 34.2162 209.581 34.2162H211.448C208.6 33.6491 206.599 31.0685 206.771 28.1694C207.09 25.3403 209.205 23.0464 211.996 22.4921C212.512 22.371 213.034 22.3136 213.563 22.3073V22.3136ZM213.563 19.9879C212.882 19.9879 212.206 20.0644 211.537 20.2109C209.524 20.5678 207.708 21.651 206.44 23.2503C205.293 24.5756 204.592 26.2387 204.452 27.9909C204.324 29.6158 204.706 31.2342 205.548 32.6296C202.158 33.9167 199.634 36.765 199.246 40.142L198.634 45.5135C198.366 47.8647 199.125 50.2159 200.711 51.9618C202.655 54.0517 205.395 55.2178 208.249 55.1732H215.87C218.756 55.1923 221.534 54.0645 223.593 52.0319C225.281 50.3752 226.224 48.1132 226.218 45.7492L226.154 40.3778C226.103 37.9756 224.988 35.7263 223.115 34.229C222.388 33.63 221.585 33.133 220.719 32.7634C221.643 31.419 222.146 29.826 222.165 28.1885C222.184 26.073 221.35 24.0404 219.852 22.5494C218.177 20.8927 215.908 19.9752 213.551 19.9879" fill="black"/>
</g>
</g>
<path d="M268.265 32.0821C267.781 32.0821 267.297 32.1394 266.819 32.2414C265.354 32.509 264.035 33.2927 263.104 34.4588C262.27 35.4337 261.766 36.6443 261.658 37.925C261.588 38.8044 261.722 39.6837 262.047 40.4993C260.065 41.4742 258.689 43.3666 258.383 45.5585L258 48.9483C257.803 50.6751 258.357 52.4018 259.523 53.6826C260.912 55.1863 262.875 56.0211 264.92 55.9892H269.725C271.776 56.0019 273.745 55.1991 275.204 53.7527C276.428 52.5484 277.116 50.8981 277.11 49.1777L277.065 45.7879C276.995 43.6533 275.816 41.7099 273.962 40.6586C274.338 39.8685 274.542 39.0019 274.548 38.1226C274.561 36.5615 273.949 35.0577 272.84 33.9554C271.617 32.7511 269.967 32.0757 268.253 32.0821" fill="#292154"/>
<path d="M263.977 38.097C263.882 40.1742 265.487 41.9392 267.565 42.0348C267.686 42.0348 267.813 42.0348 267.934 42.0348C270.196 42.1049 272.101 40.359 272.229 38.097C272.171 36.0007 270.432 34.344 268.336 34.4013C268.31 34.4013 268.285 34.4013 268.265 34.4013C266.099 34.3504 264.245 35.9497 263.984 38.097" fill="#95B3C4"/>
<path d="M264.92 53.6633H269.725C272.541 53.6633 274.816 51.6115 274.784 49.203L274.739 45.8132C274.714 43.634 272.617 41.9072 270.075 41.9072H265.742C263.206 41.9072 260.931 43.6276 260.689 45.8132L260.307 49.203C260.033 51.6115 262.104 53.6633 264.92 53.6633Z" fill="#C7DCEA"/>
<path d="M265.029 50.8087H269.878C272.063 50.8087 273.847 49.2476 273.834 47.3997V45.5392C273.822 43.806 272.152 42.4233 270.126 42.4233H265.628C263.601 42.4233 261.792 43.806 261.613 45.5392L261.416 47.3997C261.218 49.2476 262.843 50.8087 265.029 50.8087Z" fill="white"/>
<path d="M264.296 37.4792C264.156 39.2315 265.666 40.697 267.679 40.697C269.693 40.697 271.33 39.2315 271.349 37.4792C271.369 35.7907 269.846 34.459 267.96 34.459C266.074 34.459 264.436 35.7907 264.296 37.4792Z" fill="#C7DCEA"/>
<path d="M264.965 36.7655C264.888 37.9188 265.984 38.8746 267.412 38.8746C268.839 38.8746 270.005 37.9188 270.024 36.7655C270.043 35.6377 268.947 34.7393 267.577 34.7393C266.207 34.7393 265.041 35.6377 264.965 36.7655Z" fill="white"/>
<path d="M264.245 51.357C265.328 51.408 269.954 51.5545 270.942 51.357C271.789 51.0958 272.592 50.7007 273.306 50.1782C273.554 50.0317 274.115 50.911 273.376 51.7457C272.643 52.574 271.604 53.071 270.496 53.1348C269.119 53.2048 264.589 53.1348 264.34 53.0838C263.455 53.1348 263.162 51.3124 264.238 51.3634" fill="#95B3C4"/>
<path d="M72.5547 32.0821C72.0704 32.0821 71.5862 32.1394 71.1083 32.2414C69.6427 32.509 68.3238 33.2927 67.3935 34.4588C66.5588 35.4337 66.0554 36.6443 65.9534 37.925C65.8834 38.8044 66.0172 39.6837 66.3421 40.4993C64.3605 41.4742 62.9842 43.3666 62.6783 45.5585L62.296 48.9483C62.0985 50.6751 62.6528 52.4018 63.8189 53.6826C65.2079 55.1863 67.1705 56.0211 69.2158 55.9892H74.0202C76.0719 56.0019 78.0408 55.1991 79.5 53.7527C80.7234 52.5484 81.4115 50.8981 81.4051 49.1777L81.3605 45.7879C81.2904 43.6533 80.1117 41.7099 78.2575 40.6586C78.6334 39.8685 78.8373 39.0019 78.8437 38.1226C78.8564 36.5615 78.2447 35.0577 77.136 33.9554C75.9126 32.7511 74.2623 32.0757 72.5483 32.0821" fill="#292154"/>
<path d="M68.2728 38.097C68.1772 40.1742 69.7829 41.9392 71.8601 42.0348C71.9812 42.0348 72.1086 42.0348 72.2297 42.0348C74.4917 42.1049 76.3969 40.359 76.5243 38.097C76.4669 36.0007 74.7274 34.344 72.6311 34.4013C72.6056 34.4013 72.5801 34.4013 72.561 34.4013C70.3946 34.3504 68.5404 35.9497 68.2791 38.097" fill="#95B3C4"/>
<path d="M69.2094 53.6633H74.0138C76.8302 53.6633 79.1049 51.6115 79.073 49.203L79.0284 45.8132C79.003 43.634 76.9066 41.9072 74.3643 41.9072H70.0314C67.4954 41.9072 65.2207 43.6276 64.9785 45.8132L64.5962 49.203C64.3223 51.6115 66.3931 53.6633 69.2094 53.6633Z" fill="#C7DCEA"/>
<path d="M69.3178 50.8087H74.1667C76.3523 50.8087 78.1364 49.2476 78.1236 47.3997V45.5392C78.1109 43.806 76.4415 42.4233 74.4152 42.4233H69.9167C67.8905 42.4233 66.0809 43.806 65.9025 45.5392L65.7049 47.3997C65.5074 49.2476 67.1322 50.8087 69.3178 50.8087Z" fill="white"/>
<path d="M68.585 37.4792C68.4448 39.2315 69.955 40.697 71.9685 40.697C73.9819 40.697 75.6259 39.2315 75.6386 37.4792C75.6514 35.7907 74.1349 34.459 72.2488 34.459C70.3628 34.459 68.7252 35.7907 68.585 37.4792Z" fill="#C7DCEA"/>
<path d="M69.2604 36.7655C69.184 37.9188 70.2799 38.8746 71.7072 38.8746C73.1345 38.8746 74.3005 37.9188 74.3197 36.7655C74.3388 35.6377 73.2428 34.7393 71.8729 34.7393C70.5029 34.7393 69.3369 35.6377 69.2604 36.7655Z" fill="white"/>
<path d="M68.534 51.357C69.6172 51.408 74.2432 51.5545 75.2308 51.357C76.0783 51.0958 76.8811 50.7007 77.5948 50.1782C77.8433 50.0317 78.404 50.911 77.6649 51.7457C76.9321 52.574 75.8935 53.071 74.7912 53.1348C73.4148 53.2048 68.8845 53.1348 68.636 53.0838C67.7503 53.1348 67.4572 51.3124 68.5404 51.3634" fill="#95B3C4"/>
<path d="M98.6728 24.1812C98.0802 24.1812 97.4813 24.2512 96.9014 24.3787C95.1301 24.6973 93.5371 25.6467 92.4157 27.0548C91.4026 28.2273 90.7909 29.6928 90.6698 31.2348C90.5678 32.5219 90.8291 33.8154 91.428 34.9623C88.6945 36.0455 86.7447 38.4987 86.3115 41.4042L85.8017 45.9027C85.566 47.9799 86.235 50.0508 87.6368 51.5991C89.3381 53.4342 91.7339 54.4537 94.2316 54.4155H100.616C103.139 54.4346 105.561 53.447 107.351 51.6756C108.836 50.2165 109.664 48.2221 109.658 46.1449L109.601 41.6463C109.556 39.5245 108.575 37.5365 106.918 36.2112C106.395 35.7779 105.828 35.4083 105.223 35.1152C105.892 34.0065 106.249 32.7385 106.262 31.4514C106.281 29.5781 105.542 27.7812 104.216 26.4623C102.738 25.0031 100.744 24.1939 98.6728 24.2003" fill="#292154"/>
<path d="M92.9828 31.4131C92.7661 34.255 95.1109 36.638 98.2395 36.638C101.368 36.638 103.917 34.255 103.942 31.4131C103.968 28.6669 101.61 26.5068 98.6728 26.5068C95.7354 26.5068 93.193 28.6669 92.9828 31.4131Z" fill="#95B3C4"/>
<path d="M94.2316 52.0836H100.616C104.35 52.0836 107.377 49.3629 107.338 46.1578L107.281 41.6593C107.243 38.7601 104.458 36.4727 101.088 36.4727H95.334C91.9633 36.4727 88.9494 38.7601 88.618 41.6593L88.1083 46.1578C87.7451 49.3565 90.4914 52.0836 94.2316 52.0836Z" fill="#C7DCEA"/>
<path d="M94.3718 48.2923H100.807C103.707 48.2923 106.077 46.2214 106.064 43.7619L106.051 41.2896C106.039 38.9894 103.828 37.1543 101.139 37.1543H95.1683C92.473 37.1543 90.0772 38.983 89.8351 41.2896L89.5738 43.7619C89.3126 46.2214 91.4726 48.2923 94.3718 48.2923Z" fill="white"/>
<path d="M93.4033 30.5909C93.2185 32.9166 95.2256 34.86 97.8954 34.86C100.565 34.86 102.751 32.9103 102.77 30.5909C102.789 28.3417 100.775 26.5767 98.265 26.5767C95.7545 26.5767 93.5817 28.3417 93.4033 30.5909Z" fill="#C7DCEA"/>
<path d="M94.2954 29.642C94.1998 31.1713 95.6462 32.4393 97.545 32.4393C99.4438 32.4393 100.992 31.1713 101.018 29.642C101.043 28.1447 99.584 26.9531 97.768 26.9531C95.952 26.9531 94.3973 28.1447 94.3017 29.642" fill="white"/>
<path d="M93.3333 49.0124C94.7733 49.0761 100.916 49.2736 102.228 49.0124C103.356 48.6683 104.414 48.1394 105.37 47.4449C105.695 47.2474 106.446 48.4134 105.465 49.5285C104.49 50.6308 103.114 51.2935 101.642 51.3699C99.8134 51.4655 93.7984 51.3699 93.4671 51.3062C92.2883 51.3699 91.8996 48.955 93.3396 49.0187" fill="#95B3C4"/>
<path d="M242.727 24.1812C242.135 24.1812 241.536 24.2512 240.956 24.3787C239.184 24.6973 237.591 25.6467 236.47 27.0548C235.457 28.2273 234.845 29.6928 234.724 31.2348C234.622 32.5219 234.883 33.8154 235.482 34.9623C232.749 36.0455 230.799 38.4987 230.366 41.4042L229.856 45.9027C229.614 47.9799 230.283 50.0508 231.691 51.5991C233.392 53.4342 235.788 54.4537 238.286 54.4155H244.671C247.194 54.4346 249.615 53.447 251.406 51.6756C252.89 50.2165 253.719 48.2221 253.712 46.1449L253.655 41.6463C253.61 39.5245 252.629 37.5365 250.972 36.2112C250.45 35.7779 249.883 35.4083 249.277 35.1152C249.946 34.0065 250.303 32.7385 250.316 31.4514C250.335 29.5781 249.596 27.7812 248.271 26.4623C246.792 25.0031 244.798 24.1939 242.721 24.2003" fill="#292154"/>
<path d="M237.037 31.4131C236.82 34.255 239.165 36.638 242.294 36.638C245.422 36.638 247.971 34.255 247.997 31.4131C248.022 28.6669 245.665 26.5068 242.727 26.5068C239.79 26.5068 237.247 28.6669 237.037 31.4131Z" fill="#95B3C4"/>
<path d="M238.286 52.0836H244.671C248.404 52.0836 251.431 49.3629 251.393 46.1578L251.336 41.6593C251.297 38.7601 248.513 36.4727 245.142 36.4727H239.388C236.018 36.4727 233.004 38.7601 232.672 41.6593L232.163 46.1578C231.799 49.3565 234.546 52.0836 238.286 52.0836Z" fill="#C7DCEA"/>
<path d="M238.426 48.2923H244.862C247.761 48.2923 250.131 46.2214 250.119 43.7619L250.106 41.2896C250.093 38.9894 247.882 37.1543 245.187 37.1543H239.21C236.515 37.1543 234.119 38.983 233.877 41.2896L233.615 43.7619C233.354 46.2214 235.514 48.2923 238.413 48.2923" fill="white"/>
<path d="M237.464 30.5909C237.279 32.9166 239.286 34.86 241.956 34.86C244.626 34.86 246.812 32.9103 246.831 30.5909C246.85 28.3417 244.836 26.5767 242.326 26.5767C239.815 26.5767 237.642 28.3417 237.464 30.5909Z" fill="#C7DCEA"/>
<path d="M238.35 29.642C238.248 31.1713 239.701 32.4393 241.593 32.4393C243.485 32.4393 245.04 31.1713 245.066 29.642C245.091 28.1447 243.632 26.9531 241.816 26.9531C240 26.9531 238.445 28.1447 238.35 29.642Z" fill="white"/>
<path d="M237.388 49.0124C238.828 49.0761 244.97 49.2736 246.283 49.0124C247.41 48.6683 248.468 48.1394 249.424 47.4449C249.749 47.2474 250.501 48.4134 249.52 49.5285C248.545 50.6308 247.168 51.2935 245.696 51.3699C243.868 51.4655 237.853 51.3699 237.521 51.3062C236.343 51.3699 235.954 48.955 237.388 49.0187" fill="#95B3C4"/>
<path d="M129.296 17.0065C128.614 17.0065 127.939 17.083 127.27 17.2295C125.256 17.5863 123.44 18.6696 122.172 20.2689C121.025 21.5942 120.324 23.2573 120.184 25.0095C120.057 26.6343 120.439 28.2528 121.28 29.6482C117.89 30.9353 115.367 33.7835 114.978 37.1606L114.367 42.5321C114.099 44.8833 114.857 47.2345 116.444 48.9804C118.387 51.0703 121.127 52.2364 123.982 52.1854H131.602C134.489 52.2045 137.267 51.0767 139.325 49.0441C141.014 47.3874 141.957 45.1254 141.95 42.7614L141.88 37.39C141.829 34.9878 140.714 32.7386 138.841 31.2412C138.114 30.6422 137.312 30.1452 136.445 29.7757C137.369 28.4312 137.872 26.8382 137.891 25.2007C137.911 23.0852 137.076 21.0526 135.578 19.5616C133.903 17.9049 131.634 16.9874 129.277 17.0001" fill="#292154"/>
<path d="M122.51 25.1877C122.249 28.5839 125.052 31.4258 128.786 31.4258C132.52 31.4258 135.566 28.5839 135.591 25.1877C135.623 21.9063 132.8 19.332 129.302 19.332C125.804 19.332 122.765 21.9126 122.51 25.1877Z" fill="#95B3C4"/>
<path d="M124.001 49.8661H131.622C136.082 49.8661 139.695 46.6165 139.644 42.7934L139.574 37.4219C139.529 33.962 136.203 31.2349 132.182 31.2349H125.313C121.293 31.2349 117.693 33.962 117.298 37.4219L116.686 42.7934C116.253 46.6165 119.534 49.8661 123.994 49.8661" fill="#C7DCEA"/>
<path d="M124.167 45.3292H131.851C135.317 45.3292 138.14 42.8569 138.127 39.9259L138.114 36.9757C138.102 34.2295 135.464 32.0439 132.246 32.0439H125.116C121.898 32.0439 119.037 34.2295 118.75 36.9757L118.438 39.9259C118.126 42.8569 120.7 45.3292 124.167 45.3292Z" fill="white"/>
<path d="M123.013 24.2066C122.79 26.9848 125.186 29.3041 128.378 29.3041C131.571 29.3041 134.17 26.9784 134.196 24.2066C134.221 21.5241 131.813 19.4214 128.818 19.4214C125.823 19.4214 123.23 21.5305 123.013 24.213" fill="#C7DCEA"/>
<path d="M124.071 23.0722C123.956 24.9009 125.689 26.4111 127.945 26.4111C130.201 26.4111 132.061 24.9009 132.087 23.0722C132.112 21.2817 130.379 19.8672 128.206 19.8672C126.033 19.8672 124.186 21.2881 124.071 23.0722Z" fill="white"/>
<path d="M122.924 46.1955C124.644 46.2719 131.978 46.5077 133.539 46.1955C135.101 45.8832 136.897 44.5579 137.286 44.3221C137.675 44.0864 138.567 45.4818 137.401 46.8072C136.235 48.1197 134.591 48.9099 132.839 49.0054C130.653 49.1201 123.472 49.0054 123.083 48.929C121.681 49.0054 121.21 46.119 122.93 46.1955" fill="#95B3C4"/>
<path d="M213.563 17.0065C212.882 17.0065 212.206 17.083 211.537 17.2295C209.524 17.5863 207.708 18.6696 206.44 20.2689C205.293 21.5942 204.592 23.2573 204.452 25.0095C204.324 26.6343 204.706 28.2528 205.548 29.6482C202.158 30.9353 199.634 33.7835 199.246 37.1606L198.634 42.5321C198.366 44.8833 199.125 47.2345 200.711 48.9804C202.655 51.0703 205.395 52.2364 208.249 52.1854H215.87C218.756 52.2045 221.534 51.0767 223.593 49.0441C225.281 47.3874 226.224 45.1254 226.218 42.7614L226.154 37.39C226.103 34.9878 224.988 32.7386 223.115 31.2412C222.388 30.6422 221.585 30.1452 220.719 29.7757C221.643 28.4312 222.146 26.8382 222.165 25.2007C222.184 23.0852 221.35 21.0526 219.852 19.5616C218.177 17.9049 215.908 16.9874 213.551 17.0001" fill="#292154"/>
<path d="M206.771 25.1877C206.51 28.5839 209.313 31.4258 213.041 31.4258C216.768 31.4258 219.82 28.5839 219.846 25.1877C219.871 21.9063 217.055 19.332 213.557 19.332C210.059 19.332 207.019 21.9126 206.765 25.1877" fill="#95B3C4"/>
<path d="M208.262 49.8661H215.883C220.343 49.8661 223.956 46.6165 223.905 42.7934L223.841 37.4219C223.796 33.962 220.47 31.2349 216.45 31.2349H209.581C205.56 31.2349 201.96 33.962 201.565 37.4219L200.953 42.7934C200.52 46.6165 203.802 49.8661 208.262 49.8661Z" fill="#C7DCEA"/>
<path d="M208.434 45.3292H216.118C219.585 45.3292 222.407 42.8569 222.395 39.9259L222.382 36.9757C222.369 34.2295 219.731 32.0439 216.513 32.0439H209.383C206.166 32.0439 203.305 34.2295 203.018 36.9757L202.706 39.9259C202.393 42.8569 204.968 45.3292 208.434 45.3292Z" fill="white"/>
<path d="M207.274 24.2066C207.051 26.9848 209.447 29.3041 212.639 29.3041C215.832 29.3041 218.431 26.9784 218.457 24.2066C218.482 21.5241 216.074 19.4214 213.079 19.4214C210.084 19.4214 207.491 21.5305 207.274 24.213" fill="#C7DCEA"/>
<path d="M208.338 23.0722C208.224 24.9009 209.957 26.4111 212.212 26.4111C214.468 26.4111 216.329 24.9009 216.354 23.0722C216.38 21.2817 214.646 19.8672 212.474 19.8672C210.301 19.8672 208.453 21.2881 208.338 23.0722Z" fill="white"/>
<path d="M207.191 46.1955C208.912 46.2719 216.246 46.5077 217.807 46.1955C219.368 45.8832 221.165 44.5579 221.554 44.3221C221.942 44.0864 222.834 45.4818 221.668 46.8072C220.502 48.1197 218.858 48.9099 217.106 49.0054C214.92 49.1201 207.739 49.0054 207.351 48.929C205.949 49.0054 205.477 46.119 207.198 46.1955" fill="#95B3C4"/>
<path d="M170.496 43.9658C159.167 43.9531 149.985 34.7713 149.972 23.4358C149.972 23.028 149.985 22.6075 150.017 22.1168C149.985 21.6899 149.972 21.3204 149.972 20.9572C149.972 11.0044 159.18 2.90576 170.496 2.90576C181.812 2.90576 191.02 11.0044 191.02 20.9572C191.02 21.3204 191.007 21.6899 190.975 22.1168C191.007 22.6075 191.02 23.028 191.02 23.4358C191.007 34.7649 181.825 43.9467 170.496 43.9595" fill="#6D1700"/>
<path d="M190.236 23.4421C190.236 34.3443 181.398 43.182 170.502 43.182C159.6 43.182 150.763 34.3443 150.763 23.4484C150.763 12.5462 159.6 3.7085 170.496 3.7085C181.398 3.7085 190.23 12.5462 190.23 23.4421" fill="#DD8D00"/>
<path d="M170.974 30.6997C159.415 30.6997 156.727 33.3886 157.568 37.1034C157.765 37.9062 158.147 38.6454 158.695 39.2698C166.463 45.0618 177.282 44.3609 184.234 37.6131C184.291 37.4475 184.342 37.2754 184.38 37.1034C185.202 33.3695 182.654 30.6997 170.974 30.6997Z" fill="#CE7F00"/>
<path d="M190.109 22.3335C190.822 28.6416 186.311 34.3763 180.914 37.1799C176.9 39.1615 172.357 39.8114 167.947 39.0341C164.513 38.4606 161.321 36.9059 158.74 34.561C164.691 36.9696 171.299 37.2117 177.41 35.2492C183.38 33.1019 188.318 28.699 190.102 22.3399" fill="#B26100"/>
<path d="M190.236 20.8232C190.236 30.2727 181.398 37.938 170.502 37.938C159.607 37.938 150.763 30.2727 150.763 20.8232C150.763 11.3738 159.6 3.7085 170.502 3.7085C181.405 3.7085 190.236 11.3738 190.236 20.8232Z" fill="#FFC82C"/>
<path d="M189.535 20.8236C189.535 29.9417 181.01 37.333 170.496 37.333C162.283 37.333 155.287 32.8218 152.617 26.5009C152.234 25.5452 151.935 24.5639 151.718 23.5635C150.941 20.2884 152.731 19.6831 156.051 19.887C157.211 19.9571 158.562 20.1291 160.046 20.3139C163.067 20.7535 166.112 21.002 169.164 21.053C171.86 21.053 180.544 29.4192 181.959 27.2719C186.948 19.7213 182.705 17.6951 184.712 17.1343C188.025 16.1977 189.535 16.5991 189.535 20.8236Z" fill="#EFB000"/>
<path d="M162.34 40.2257C162.608 41.4491 167.164 42.9974 171.611 42.7043C176.059 42.4112 179.041 41.1114 179.544 40.0218C180.048 38.9322 175.855 40.7736 171.235 40.4423C166.616 40.111 162.047 38.8876 162.34 40.232" fill="#DD8D00"/>
<path d="M159.237 8.84461C159.237 9.8195 158.447 10.616 157.466 10.616C156.491 10.616 155.694 9.82587 155.694 8.84461C155.694 7.86972 156.484 7.07324 157.466 7.07324C158.441 7.07324 159.237 7.86335 159.237 8.84461Z" fill="#FFFDFA"/>
<path d="M169.094 3.77242C159.365 5.76681 151.585 11.9921 150.769 22.3591C148.978 11.7054 158.931 3.20533 169.094 3.77242Z" fill="#FFFDFA"/>
<path d="M183.565 20.8296C183.565 27.0931 177.715 32.1651 170.496 32.1651C163.277 32.1651 157.427 27.0931 157.427 20.8296C157.427 14.5661 163.283 9.49414 170.496 9.49414C177.709 9.49414 183.565 14.5661 183.565 20.8296Z" fill="#D17200"/>
<path d="M170.496 10.998C163.468 10.998 157.587 15.847 157.772 22.7031C157.778 23.0026 157.791 23.2957 157.816 23.5888C159.237 28.5142 164.373 32.1653 170.496 32.1653C176.619 32.1653 181.755 28.5142 183.176 23.5888C183.201 23.2957 183.221 23.0026 183.221 22.7031C183.208 15.9553 177.524 10.998 170.496 10.998Z" fill="#F4A11C"/>
<path d="M170.107 9.5514C163.99 9.63423 157.861 14.5915 157.765 20.9379C157.714 21.8363 157.721 22.7347 157.778 23.6331C156.822 20.0904 157.485 15.9933 160.123 13.2853C162.646 10.6792 166.469 8.95882 170.101 9.55777" fill="#B25900"/>
<path d="M158.128 22.9135C157.727 20.4157 159.415 12.1578 169.572 11.8329C179.729 11.5079 182.309 19.0968 182.399 20.7534C182.488 22.4101 175.046 21.123 170.585 21.1676C166.125 21.2122 162.404 25.9465 161.117 25.8127C159.83 25.6789 158.498 25.2137 158.128 22.9199" fill="#ED981D"/>
<path d="M169.719 31.6044C167.144 31.6044 166.992 31.4324 166.673 31.0564L166.463 30.8143L166.399 30.4957C166.278 27.227 166.335 23.9455 166.577 20.6831C164.315 21.2438 164.048 21.2119 163.844 21.1865C163.054 21.1036 162.799 20.3645 162.646 19.9248C161.779 17.4143 161.537 16.1017 161.544 15.3881H161.512C161.448 14.3304 162.009 14.152 165.647 12.9477C167.068 12.4571 168.514 12.0365 169.974 11.6924L170.133 11.6797C175.428 11.6797 175.485 12.6163 175.53 13.2981C175.555 13.7059 175.594 14.2603 175.645 14.923C175.778 16.809 175.989 19.6572 176.116 22.3079C176.282 25.8188 176.377 30.1261 176.339 30.4001L176.237 31.1775L175.479 31.3878C175.014 31.5152 171.732 31.5789 171.363 31.5853C170.725 31.598 170.184 31.6044 169.719 31.6044Z" fill="#DD7622"/>
<path d="M167.533 30.5025C167.355 29.5658 167.814 22.869 167.928 19.1096C167.928 19.1096 164.354 20.0463 163.991 20.0017C163.761 19.9762 162.754 15.8664 162.844 15.7835C162.818 15.3821 162.818 14.9743 162.844 14.5729C163.06 14.5219 169.636 12.4893 170.178 12.3364C170.675 12.3172 173.867 12.4957 174.307 12.7378C174.307 12.7378 175.383 29.4957 175.237 30.6299C174.925 30.7191 167.788 30.7828 167.54 30.4961" fill="#9B4600"/>
<path d="M167.559 29.0622C167.38 28.1256 167.814 21.6582 167.928 17.9052C167.928 17.9052 164.354 18.8418 163.99 18.7972C163.761 18.7717 162.754 14.6683 162.844 14.5791C163.36 14.1585 169.183 12.4126 170.235 12.2725C171.038 12.2725 173.867 12.5082 174.306 12.7503C174.306 12.7503 175.313 27.9089 175.167 29.0368C174.854 29.1196 167.814 29.349 167.559 29.0622Z" fill="#FFEDA1"/>
<path d="M183.437 22.3018C183.074 31.3689 174.498 33.8157 166.883 31.783C168.202 31.8531 169.636 31.9232 170.961 31.9169C177.461 31.7767 182.137 28.9667 183.437 22.3018Z" fill="#FFE3BB"/>
<path d="M181.36 28.9344C181.36 29.8392 180.627 30.572 179.723 30.572C178.818 30.572 178.085 29.8392 178.085 28.9344C178.085 28.0296 178.818 27.2969 179.723 27.2969C180.627 27.2969 181.36 28.0296 181.36 28.9344Z" fill="#FFFDFA"/>
<path d="M170.178 12.2725C166.335 13.0562 163.831 13.8654 162.818 14.4198C162.914 15.178 163.341 17.6248 163.99 18.7909C163.672 17.4846 163.43 16.1593 163.277 14.8212C164.513 14.1139 170.178 12.2661 170.178 12.2661" fill="#FFFDFA"/>
<path d="M168.317 21.0145C168.814 20.6959 172.624 20.5175 173.975 20.7277C174.364 20.7978 174.651 28.0553 174.542 28.1955C172.548 28.5587 170.502 28.5969 168.495 28.3038C167.622 28.1445 168.317 21.0145 168.317 21.0145Z" fill="#FFC648"/>
</svg>
